<?xml version="1.0" encoding="UTF-8" standalone="no"?>
<!DOCTYPE svg PUBLIC "-//W3C//DTD SVG 1.1//EN" "http://www.w3.org/Graphics/SVG/1.1/DTD/svg11.dtd">
<!-- Created with Vectornator (http://vectornator.io/) -->
<svg height="100%" stroke-miterlimit="10" style="fill-rule:nonzero;clip-rule:evenodd;stroke-linecap:round;stroke-linejoin:round;" version="1.1" viewBox="0 0 1024 1024" width="100%" xml:space="preserve" xmlns="http://www.w3.org/2000/svg" xmlns:vectornator="http://vectornator.io" xmlns:xlink="http://www.w3.org/1999/xlink">
<defs/>
<clipPath id="ArtboardFrame">
<rect height="1024" width="1024" x="0" y="0"/>
</clipPath>
<g clip-path="url(#ArtboardFrame)" id="Layer-1" vectornator:layerName="Layer 1">
<path d="M260.228 1.98322L763.772 1.98322C906.94 1.98322 1023 116.894 1023 258.644L1023 767.322C1023 909.072 906.94 1023.98 763.772 1023.98L260.228 1023.98C117.06 1023.98 1 909.072 1 767.322L1 258.644C1 116.894 117.06 1.98322 260.228 1.98322Z" fill="#000000" fill-rule="evenodd" opacity="1" stroke="#7a7a7a" stroke-linecap="round" stroke-linejoin="round" stroke-width="1"/>
</g>
<g id="Layer-2" vectornator:layerName="Layer 2">
<g opacity="1">
<path d="M512.728 851.253C488.461 851.253 466.985 846.521 448.299 837.057C429.614 827.592 414.932 813.639 404.255 795.196C393.577 776.753 388.238 754.67 388.238 728.947C388.238 722.638 388.481 716.207 388.966 709.655C389.452 703.103 390.18 696.429 391.15 689.634C351.352 692.061 314.467 687.45 280.493 675.802C246.519 664.154 216.913 646.803 191.676 623.75C166.438 600.696 146.782 572.789 132.707 540.028C118.632 507.268 111.594 471.231 111.594 431.919C111.594 396.004 117.661 362.394 129.795 331.089C141.928 299.785 159.4 272.242 182.211 248.46C205.022 224.679 232.565 206.114 264.841 192.768C297.116 179.421 332.91 172.747 372.222 172.747C411.535 172.747 447.207 179.299 479.24 192.404C511.272 205.508 538.694 223.829 561.505 247.368C584.316 270.907 601.909 297.965 614.285 328.541C626.662 359.118 632.85 392.121 632.85 427.551L632.85 720.939C632.85 747.147 627.996 770.08 618.289 789.736C608.583 809.392 594.872 824.559 577.157 835.236C559.442 845.914 537.966 851.253 512.728 851.253ZM508.36 788.644C524.376 788.644 537.48 782.941 547.672 771.536C557.865 760.13 562.961 743.75 562.961 722.395L562.961 549.129C538.208 565.145 518.552 581.404 503.992 597.905C489.432 614.407 478.633 630.423 471.595 645.954C464.558 661.485 459.947 675.802 457.763 688.906C455.579 702.011 454.487 712.931 454.487 721.667C454.487 735.742 457.035 747.754 462.131 757.703C467.227 767.653 473.901 775.297 482.152 780.636C490.402 785.974 499.138 788.644 508.36 788.644ZM372.222 629.938C379.988 629.938 387.268 629.574 394.062 628.846C400.857 628.118 408.137 626.783 415.903 624.842C422.697 608.34 432.283 591.596 444.659 574.609C457.035 557.622 472.809 540.756 491.98 524.012C511.151 507.268 534.811 491.616 562.961 477.056L562.961 427.551C562.961 399.886 558.229 374.285 548.765 350.746C539.3 327.207 525.954 306.822 508.724 289.593C491.494 272.363 471.231 258.774 447.935 248.824C424.639 238.875 399.401 233.9 372.222 233.9C344.558 233.9 319.199 238.875 296.145 248.824C273.091 258.774 252.95 272.727 235.72 290.685C218.491 308.643 205.144 329.633 195.68 353.658C186.215 377.682 181.483 403.769 181.483 431.919C181.483 460.069 186.215 486.156 195.68 510.18C205.144 534.204 218.491 555.195 235.72 573.153C252.95 591.11 273.091 605.064 296.145 615.013C319.199 624.963 344.558 629.938 372.222 629.938Z" fill="#ffffff" fill-rule="evenodd" opacity="1" stroke="#ffffff" stroke-linecap="round" stroke-linejoin="round" stroke-width="15"/>
<path d="M730.403 691.09L730.403 425.367C730.403 392.364 739.746 366.519 758.431 347.834C777.117 329.148 802.961 319.805 835.964 319.805L912.406 319.805L912.406 377.318L848.341 377.318C832.324 377.318 819.827 381.929 810.848 391.15C801.869 400.372 797.38 413.233 797.38 429.735L797.38 691.09L730.403 691.09Z" fill="#ffffff" fill-rule="evenodd" opacity="1" stroke="#ffffff" stroke-linecap="round" stroke-linejoin="round" stroke-width="15"/>
</g>
</g>
</svg>
