<?xml version="1.0" encoding="UTF-8" standalone="no"?>
<!DOCTYPE svg PUBLIC "-//W3C//DTD SVG 1.1//EN" "http://www.w3.org/Graphics/SVG/1.1/DTD/svg11.dtd">
<!-- Created with Vectornator (http://vectornator.io/) -->
<svg height="100%" stroke-miterlimit="10" style="fill-rule:nonzero;clip-rule:evenodd;stroke-linecap:round;stroke-linejoin:round;" version="1.1" viewBox="0 0 400 400" width="100%" xml:space="preserve" xmlns="http://www.w3.org/2000/svg" xmlns:xlink="http://www.w3.org/1999/xlink">
<defs/>
<g id="svgg">
<path d="M117.623 85.8339C113.428 86.4882 111.323 88.128 110.314 91.529C109.438 94.4762 109.275 305.243 110.145 308.378C111.661 313.838 114.302 314.576 132.323 314.576C150.009 314.576 151.869 314.133 153.929 309.421C154.733 307.585 154.796 305.197 155.011 268.283C155.252 227.037 155.185 228.311 157.246 225.953C159.427 223.458 155.526 223.613 222.389 223.358C289.574 223.102 285.757 223.268 288.745 220.453C291.483 217.873 291.371 220.711 291.371 153.911L291.371 92.4801L290.216 90.1998C289.299 88.3938 288.587 87.6834 286.778 86.7747L284.496 85.6288L269.37 85.6288C252.949 85.6288 251.533 85.764 249.428 87.5356C246.27 90.1929 246.477 87.413 246.223 130.777C245.955 176.56 246.241 174.327 240.409 176.406C238.053 177.247 163.377 177.374 160.924 176.542C154.895 174.498 155.278 177.398 155.011 131.693L154.782 92.5041L153.636 90.2124C151.467 85.8752 150.489 85.6437 133.927 85.5498C126.238 85.5062 118.901 85.6334 117.623 85.8339M283.52 256.157C279.86 257.441 254.866 271.968 250.784 275.183C249.888 275.889 248.547 277.563 247.805 278.906L246.453 281.346L246.453 294.867C246.453 315.254 245.414 314.275 267.308 314.5C293.095 314.764 291.371 316.941 291.371 284.096C291.371 258.198 291.309 257.66 288.186 256.178C286.341 255.302 285.959 255.301 283.52 256.157" fill="#000000" fill-rule="evenodd" opacity="1" stroke="none"/>
</g>
</svg>
