<?xml version="1.0" encoding="UTF-8" standalone="no"?>
<!DOCTYPE svg PUBLIC "-//W3C//DTD SVG 1.1//EN" "http://www.w3.org/Graphics/SVG/1.1/DTD/svg11.dtd">
<!-- Created with Vectornator (http://vectornator.io/) -->
<svg height="100%" stroke-miterlimit="10" style="fill-rule:nonzero;clip-rule:evenodd;stroke-linecap:round;stroke-linejoin:round;" version="1.1" viewBox="0 0 400 400" width="100%" xml:space="preserve" xmlns="http://www.w3.org/2000/svg" xmlns:vectornator="http://vectornator.io" xmlns:xlink="http://www.w3.org/1999/xlink">
<defs/>
<g id="svgg" vectornator:layerName="svgg">
<path d="M186.924 30.9786C162.644 33.6534 152.077 36.4828 131.041 45.9421C92.0525 63.4758 64.1991 92.8748 46.3705 135.311C42.6683 144.122 38.4479 159.408 37.1945 168.545C36.9917 170.02 36.5923 172.351 36.3064 173.727C34.5241 182.294 34.7403 211.819 36.6468 220.113C36.9264 221.331 37.3124 223.88 37.5045 225.779C37.6956 227.677 38.1057 229.719 38.4157 230.317C38.7249 230.916 38.9777 232.03 38.9777 232.795C38.9777 233.56 39.3163 235.457 39.7308 237.012C40.1445 238.567 40.6983 240.642 40.9611 241.625C42.5271 247.489 43.2365 249.748 43.9236 251.066C44.3478 251.88 44.6954 252.698 44.6954 252.884C44.6954 253.069 45.1779 254.274 45.7674 255.562C46.3571 256.85 46.8396 258.028 46.8396 258.181C46.8396 259.335 54.278 274.342 58.56 281.827C64.6092 292.402 82.3163 314.296 84.4899 313.889C84.7141 313.846 84.866 313.988 84.8276 314.202C84.7481 314.643 89.7805 319.629 93.2961 322.591C96.2774 325.105 100.086 328.025 100.086 327.799C100.086 327.704 100.567 328.106 101.154 328.693C101.741 329.28 102.368 329.671 102.546 329.561C102.724 329.45 102.971 329.623 103.095 329.946C103.218 330.268 103.421 330.429 103.547 330.304C103.672 330.179 104.001 330.399 104.277 330.794C104.554 331.19 104.913 331.43 105.076 331.33C105.238 331.23 105.468 331.398 105.584 331.705C105.702 332.009 105.944 332.171 106.12 332.061C106.298 331.952 106.544 332.125 106.668 332.448C106.791 332.77 106.975 332.949 107.075 332.849C107.176 332.748 107.751 333.127 108.354 333.69C108.956 334.253 109.577 334.636 109.734 334.539C109.89 334.443 110.117 334.626 110.242 334.949C110.365 335.271 110.557 335.444 110.666 335.334C110.777 335.223 111.18 335.448 111.565 335.831C111.948 336.216 112.401 336.444 112.569 336.34C112.738 336.236 112.973 336.401 113.089 336.708C113.207 337.012 113.466 337.164 113.663 337.041C113.861 336.919 114.023 336.985 114.023 337.188C114.023 337.651 115.997 338.699 116.3 338.395C116.423 338.271 116.524 338.368 116.524 338.61C116.524 338.851 116.671 338.956 116.851 338.845C117.031 338.735 117.26 338.845 117.359 339.093C117.495 339.428 117.547 339.432 117.568 339.107C117.601 338.599 116.365 337.853 116.035 338.184C115.911 338.308 115.809 338.213 115.809 337.971C115.809 337.73 115.649 337.633 115.452 337.754C115.256 337.875 115.095 337.824 115.095 337.64C115.095 337.237 111.216 334.858 110.765 334.985C110.591 335.034 110.449 334.921 110.449 334.734C110.449 334.321 107.237 332.063 107.223 332.466C107.216 332.622 107.045 332.466 106.842 332.119C106.639 331.77 106.323 331.579 106.139 331.692C105.954 331.807 105.803 331.743 105.803 331.553C105.803 331.362 104.718 330.438 103.391 329.499C97.0269 324.997 77.2249 307.2 78.5783 307.2C78.6944 307.2 78.2317 306.597 77.55 305.86C74.5571 302.624 74.1863 302.155 74.8037 302.391C75.6569 302.719 75.5872 302.244 74.6242 301.159C74.1819 300.66 74.0765 300.448 74.3892 300.686C75.0878 301.217 75.5712 300.834 75.027 300.18C74.7286 299.82 74.7805 299.647 75.2388 299.472C75.6953 299.297 75.7338 299.17 75.3951 298.96C75.1476 298.807 74.8922 298.308 74.8278 297.849C74.751 297.294 74.8126 297.171 75.0137 297.481C75.179 297.738 75.4612 297.919 75.64 297.886C75.8177 297.852 76.0446 297.855 76.143 297.894C76.6754 298.102 77.6081 298.183 77.4321 298.007C77.3187 297.894 77.4848 297.611 77.8011 297.38C78.1772 297.105 78.3969 296.351 78.4353 295.201L78.4952 293.442L80.1301 293.556C81.3264 293.639 81.8204 293.527 81.9696 293.137C82.0822 292.845 83.1739 291.926 84.3961 291.096C89.4804 287.643 90.0727 286.019 87.4345 282.777C86.1677 281.219 85.3377 279.162 84.8937 276.476C84.6793 275.176 84.2121 274.436 82.4145 272.545C79.913 269.912 78.9678 268.409 77.709 265.065C76.2064 261.071 73.7459 260.07 71.7027 262.62C71.1909 263.259 70.6307 263.957 70.4582 264.173C69.8865 264.884 68.9734 266.818 69.2093 266.818C69.3361 266.818 69.2343 267.067 68.9824 267.371C68.7304 267.675 68.3087 267.841 68.0452 267.74C67.7602 267.63 67.5645 267.805 67.5609 268.17C67.5565 268.698 67.5065 268.709 67.2089 268.248C67.0186 267.953 66.8481 267.793 66.8302 267.891C66.8114 267.989 66.7435 268.35 66.6774 268.693C66.6113 269.037 66.7042 269.408 66.8837 269.519C67.0625 269.629 67.2206 269.51 67.234 269.253C67.2482 268.995 67.3885 269.106 67.5466 269.499C67.7048 269.892 67.6878 270.495 67.5091 270.839C67.3064 271.227 67.3233 271.725 67.5538 272.156C68.7938 274.473 67.4984 277.967 66.0993 276.081C65.7473 275.606 65.2095 274.935 64.9049 274.591C64.1813 273.775 64.1688 273.818 65.483 272.474L66.6167 271.315L65.3936 270.788C64.7217 270.499 64.0875 270.251 63.9847 270.238C62.8912 270.097 61.9147 267.817 61.862 265.279C61.8549 264.923 61.6878 264.732 61.4912 264.853C61.292 264.977 61.1339 264.702 61.1339 264.231C61.1339 263.768 60.9624 263.216 60.7532 263.008C60.5434 262.797 60.286 262.082 60.1815 261.417C59.9474 259.927 59.2444 259.384 58.9736 260.484C58.694 261.626 57.6961 261.692 57.4191 260.587C57.2941 260.088 56.792 259.419 56.3042 259.099C55.6537 258.673 55.4162 258.2 55.4162 257.331C55.4162 255.687 54.8703 254.413 54.0546 254.154C53.498 253.977 53.3238 253.476 53.1434 251.532C53.021 250.21 52.8459 248.567 52.7538 247.879C52.6618 247.191 52.6725 246.909 52.7771 247.253C52.9968 247.976 54.3181 248.393 55.61 248.146C56.1022 248.051 56.5892 248.111 56.6928 248.278C56.7955 248.445 57.7166 248.115 58.7387 247.547C64.6172 244.282 71.734 241.807 75.2495 241.808C77.1436 241.808 78.5318 241.533 80.9672 240.675C86.3892 238.766 88.6504 239.811 88.6504 244.224C88.6504 249.835 87.279 251.557 84.0218 250.031C81.1906 248.705 79.8622 250.06 80.3043 253.825C80.7877 257.935 84.1665 258.675 85.8961 255.048C86.6188 253.533 91.3359 254.365 94.2252 256.519C95.3705 257.372 97.8845 257.263 99.6133 256.286C102.237 254.802 102.972 254.802 106.138 256.288C108.67 257.475 109.128 257.579 111.031 257.387C116.203 256.866 116.687 256.879 118.167 257.57C120.754 258.778 121.049 260.505 119.205 263.651C118.517 264.825 117.953 265.844 117.953 265.916C117.953 266.366 120.683 267.532 122.956 268.055C128.366 269.297 130.461 271.212 130.461 274.912C130.461 280.454 134.194 279.078 141.197 270.954C143.878 267.845 150.245 262.342 152.702 261.012C153.994 260.312 155.954 260.226 158.289 260.764C159.148 260.962 161.75 261.17 164.073 261.229C168.667 261.342 167.935 261.104 174.556 264.627C176.303 265.557 177.063 265.747 179.023 265.748C185.118 265.749 185.516 266.836 185.885 284.508C186.233 301.195 186.299 302.063 187.801 310.059C190.493 324.39 190.513 324.428 192.056 318.278C193.994 310.55 194.507 303.666 194.331 287.724C193.987 256.552 195.168 251.731 204.077 247.919C209.022 245.803 210.324 243.7 208.234 241.206C203.3 235.318 205.072 232.183 214.848 229.496C220.626 227.908 220.426 223.544 214.565 223.284C209.259 223.048 205.31 224.51 202.049 227.92C201.101 228.912 199.199 230.631 197.823 231.74C194.809 234.169 194.063 234.96 192.376 237.515C191.663 238.596 190.868 239.694 190.61 239.953C190.347 240.217 190.151 241.161 190.165 242.097C190.184 243.36 190.266 243.595 190.497 243.054C190.749 242.47 190.809 242.568 190.825 243.591C190.838 244.524 190.756 244.705 190.497 244.306C190.283 243.974 190.149 243.934 190.145 244.2C190.143 244.436 189.738 245.223 189.247 245.947C188.756 246.672 188.353 247.612 188.353 248.038C188.353 249.052 186.236 251.342 185.015 251.649C184.27 251.835 183.035 251.404 179.503 249.721C168.91 244.672 159.608 243.111 144.636 243.87C135.317 244.342 134.294 245.106 135.732 250.533C136.839 254.711 136.075 256.354 132.859 256.716C130.065 257.03 125.099 253.048 123.844 249.486C122.219 244.871 121.626 243.997 116.472 238.594C108.938 230.701 108.592 230.576 90.6008 229.273C84.003 228.795 82.6746 228.968 77.709 230.954C72.7426 232.941 71.3731 233.219 66.5255 233.222L62.089 233.227L58.3617 235.2C54.6237 237.179 52.2687 238.731 51.7353 239.569C51.3467 240.178 50.2237 240.134 49.5706 239.48C49.2758 239.186 48.8684 238.945 48.6648 238.945C48.035 238.945 47.5543 237.639 47.5543 235.93C47.5543 234.372 46.5572 233.394 46.4376 234.835C46.4134 235.13 46.3723 235.68 46.3482 236.056C46.3241 236.433 46.1937 236.851 46.0606 236.985C45.9265 237.118 45.8988 237.441 45.9989 237.702C46.317 238.53 44.6597 239.153 44.1156 238.409C43.861 238.061 43.4169 237.876 43.1159 237.991C42.3235 238.296 41.9821 237.483 42.6862 236.967C43.2258 236.572 43.2293 236.506 42.7219 236.311C42.3529 236.17 42.2449 236.237 42.4101 236.504C42.5816 236.781 42.42 236.85 41.9098 236.716C41.4953 236.608 41.0798 236.667 40.9869 236.847C40.894 237.029 40.8663 236.971 40.9253 236.72C40.9842 236.471 41.1978 236.3 41.4005 236.343C41.6034 236.385 41.8598 236.184 41.9706 235.896C42.0948 235.571 41.9563 235.371 41.6088 235.371C41.2433 235.371 41.121 235.174 41.2612 234.808C41.3801 234.5 41.2478 234.017 40.9682 233.737C40.5277 233.296 40.4375 233.313 40.2963 233.854C40.1489 234.417 40.1283 234.419 40.0909 233.874C40.0328 233.017 40.6885 232.725 41.4059 233.286C41.9669 233.726 41.9732 233.707 41.4792 233.048C40.6438 231.935 40.2489 231.773 39.9854 232.436C39.7898 232.93 39.738 232.891 39.7174 232.233C39.7041 231.786 39.9336 231.325 40.2285 231.213C40.5232 231.1 40.7644 230.853 40.7644 230.667C40.7644 230.479 40.6037 230.426 40.4071 230.547C40.2106 230.668 40.047 230.557 40.0444 230.3C40.0399 229.96 39.9443 229.979 39.6924 230.368C39.4896 230.682 39.344 230.73 39.3404 230.483C39.3377 230.251 39.6022 229.794 39.9291 229.468C40.2865 229.11 40.383 228.78 40.1713 228.638C39.6977 228.322 39.235 227.049 39.6968 227.333C39.8908 227.453 40.0497 227.372 40.0497 227.152C40.0497 226.933 40.2508 226.868 40.4964 227.01C40.7421 227.151 40.827 227.138 40.685 226.981C40.2909 226.544 41.5712 224.61 42.1153 224.818C42.3753 224.917 42.4905 224.84 42.3699 224.646C42.2502 224.452 42.3618 224.272 42.6192 224.247C44.221 224.091 44.6239 224 45.3118 223.631C45.7327 223.406 46.1749 222.911 46.2955 222.531C46.4179 222.145 46.9772 221.74 47.5667 221.61C48.1448 221.484 48.7104 221.231 48.822 221.049C48.9346 220.868 49.4473 220.72 49.9638 220.72C51.9141 220.72 62.2944 214.918 64.3501 212.679C65.8323 211.064 69.2415 208.577 71.0479 207.792C73.4762 206.737 74.8707 205.596 76.5682 203.276C77.3856 202.159 79.2858 199.957 80.7904 198.385C82.2939 196.813 84.2094 194.48 85.0465 193.203C86.8386 190.469 88.2565 189.394 89.3205 189.963C91.6299 191.199 96.2479 189.742 99.3935 186.784C102.795 183.587 108.337 180.186 112.127 178.969C116.372 177.606 119.781 183.873 117.958 189.687C117.034 192.637 117.041 195.483 117.982 197.94C118.828 200.149 118.74 200.488 116.336 204.265C113.202 209.19 116.496 211.985 125.279 211.853C129.357 211.793 130.883 211.923 133.524 212.552C138.222 213.673 137.531 214.11 148.541 203.033C158.739 192.772 159.081 192.503 164.053 190.881C167.043 189.905 174.127 186.566 176.833 184.859C177.594 184.379 179.52 183.331 181.113 182.529C185.075 180.537 186.232 178.527 184.4 176.821C182.851 175.377 181.343 175.523 174.327 177.8C170.043 179.191 165.721 180.3 161.73 181.033C158.389 181.648 153.323 182.726 150.473 183.431C144.554 184.894 143.033 184.892 138.014 183.419C130.328 181.163 130.168 179.217 136.641 166.759C142.115 156.221 147.472 148.182 149.938 146.801C151.508 145.922 148.127 146.821 146.006 147.846C143.881 148.875 135.327 154.759 126.306 161.4C123.725 163.299 120.026 165.836 118.086 167.039C116.147 168.239 112.871 170.603 110.806 172.29C108.743 173.978 104.443 177.124 101.251 179.281C88.0573 188.196 85.3851 187.388 81.0316 173.163C73.6897 149.173 78.4871 128.204 95.8896 108.229C115.285 85.967 152.607 77.8756 185.852 88.725C198.263 92.7756 210.367 101.735 219.111 113.342C233.433 132.357 232.653 141.999 217.478 133.524C211.228 130.033 206.411 128.164 203.666 128.164C202.162 128.164 202.141 128.763 203.637 129.008C205.348 129.287 208.849 130.954 211.484 132.742C213.456 134.081 214.599 134.624 219.148 136.377C220.449 136.879 222.274 138.101 224.246 139.79C225.935 141.237 228.67 143.304 230.323 144.381C234.884 147.353 234.898 147.545 230.948 153.303C228.243 157.247 227.807 158.912 228.555 162.467C230.201 170.291 232.703 170.592 242.322 164.12C250.786 158.426 259.692 157.338 267.702 161.019C270.275 162.202 273.057 163.17 275.191 163.626C281.943 165.071 284.152 166.982 290.603 176.953C297.633 187.825 299.329 190.37 302.489 194.811C306.286 200.142 309.842 206.67 319.665 226.335C333.129 253.292 341.008 266.324 344.898 268.079C345.638 268.413 346.327 269.006 346.429 269.396C346.546 269.845 346.777 270.007 347.051 269.837C347.321 269.671 347.396 269.716 347.248 269.955C347.117 270.168 347.173 270.444 347.373 270.568C347.619 270.721 347.618 271.013 347.37 271.478C347.07 272.04 347.107 272.124 347.578 271.943C347.992 271.784 347.8 272.419 346.888 274.232C346.193 275.611 345.724 276.839 345.846 276.961C345.967 277.083 345.87 277.182 345.629 277.182C345.388 277.182 345.291 277.343 345.412 277.539C345.534 277.736 345.466 277.897 345.262 277.897C344.836 277.897 343.287 280.753 343.707 280.761C343.859 280.764 343.788 280.89 343.55 281.041C342.817 281.507 340.203 285.784 340.429 286.147C340.545 286.336 340.49 286.447 340.304 286.393C339.899 286.274 334.146 294.208 334.431 294.493C334.541 294.602 334.471 294.692 334.275 294.692C334.079 294.692 333.386 295.355 332.736 296.163C331.629 297.541 331.614 297.595 332.498 297.015C333.016 296.675 333.441 296.165 333.441 295.881C333.441 295.57 333.617 295.467 333.888 295.623C334.133 295.764 334.221 295.753 334.082 295.599C333.942 295.445 334.183 295.022 334.617 294.661C335.051 294.297 335.304 293.997 335.179 293.99C335.054 293.983 335.496 293.384 336.162 292.658C336.827 291.931 337.371 291.127 337.371 290.87C337.371 290.614 337.542 290.404 337.751 290.404C337.958 290.404 338.04 290.26 337.93 290.084C337.822 289.909 337.945 289.684 338.204 289.584C338.896 289.318 342.426 283.987 342.177 283.584C342.06 283.395 342.143 283.284 342.361 283.338C342.844 283.457 344.967 279.763 344.682 279.3C344.569 279.118 344.629 278.969 344.813 278.969C345.302 278.969 346.251 277.408 346.458 276.26C346.557 275.718 346.844 275.144 347.097 274.983C347.35 274.823 347.436 274.689 347.288 274.686C347.141 274.683 347.272 274.399 347.579 274.056C349.473 271.935 353.81 264.278 353.81 263.054C353.81 262.928 354.377 261.536 355.07 259.96C357.567 254.28 362.299 239.503 362.944 235.376C363.08 234.494 363.426 233.127 363.711 232.338C364.448 230.299 365.923 221.602 366.318 216.967C366.502 214.806 366.82 211.75 367.025 210.177C368.388 199.708 367.874 183.336 365.733 169.082C362.262 145.957 350.828 119.03 335.763 98.5049C335.37 97.9699 334.733 97.0666 334.347 96.4984C333.677 95.513 331.317 92.4478 330.938 92.0708C330.839 91.9725 329.565 90.4448 328.107 88.6758C317.79 76.1576 302.249 63.1757 285.554 53.1286C257.789 36.4177 218.219 27.531 186.924 30.9786M170.459 221.562C165.221 222.56 164.8 223.303 167.894 226.082C172.987 230.656 178.977 231.976 185.137 229.881C186.022 229.581 187.63 229.089 188.711 228.787C195.624 226.86 194.57 222.767 186.916 221.823C182.059 221.223 172.989 221.081 170.459 221.562M55.7718 249.847C55.2642 250.458 55.87 253.021 56.6401 253.525C56.8518 253.663 57.0332 254.519 57.0439 255.428C57.0689 257.499 58.1026 258.873 58.4867 257.345C58.837 255.949 58.4001 253.968 57.5862 253.262C56.993 252.747 56.9198 252.439 57.1797 251.533C57.588 250.111 56.5668 248.889 55.7718 249.847M49.2285 252.873C49.0668 253.936 48.7693 254.049 48.7693 253.049C48.7693 252.564 48.8971 252.167 49.0525 252.167C49.2088 252.167 49.2884 252.484 49.2285 252.873M103.552 266.093C101.621 266.465 101.165 267.385 100.609 272.041C99.783 278.939 106.532 279.425 110.271 272.736C112.846 268.135 112.428 266.642 108.484 266.351C107.108 266.249 105.741 266.091 105.446 265.999C105.152 265.906 104.299 265.949 103.552 266.093M70.7825 277.361C70.7825 278.392 70.586 278.466 69.8382 277.718C69.3621 277.242 69.3665 277.182 69.8847 277.182C70.2054 277.182 70.3681 277.021 70.2465 276.824C70.125 276.628 70.1955 276.468 70.4037 276.468C70.6119 276.468 70.7825 276.87 70.7825 277.361M329.428 300.321C328.356 301.648 327.494 302.83 327.512 302.949C327.529 303.069 327.025 303.602 326.391 304.135C325.756 304.67 325.269 305.215 325.308 305.349C325.346 305.483 321.75 309.13 317.316 313.454C312.883 317.778 309.29 321.363 309.333 321.421C309.512 321.664 325.762 305.67 325.665 305.344C325.625 305.209 326.031 304.751 326.568 304.329C327.105 303.908 327.544 303.425 327.544 303.258C327.544 303.09 327.906 302.615 328.348 302.204C328.79 301.791 329.153 301.341 329.153 301.2C329.153 301.061 329.777 300.263 330.54 299.427C331.303 298.592 331.805 297.909 331.653 297.909C331.501 297.909 330.5 298.995 329.428 300.321M237.044 308.308C234.884 309.11 236.918 312.909 242.641 318.761C246.807 323.021 248.626 324.593 248.979 324.24C249.297 323.922 246.656 313.994 245.797 312.276C244.32 309.319 239.816 307.278 237.044 308.308M81.5033 310.595C82.1697 311.283 82.6352 311.845 82.5369 311.845C82.4386 311.845 81.8124 311.283 81.146 310.595C80.4794 309.907 80.014 309.344 80.1123 309.344C80.2105 309.344 80.8368 309.907 81.5033 310.595M87.221 316.313C88.2886 317.394 89.082 318.278 88.9837 318.278C88.8854 318.278 87.9313 317.394 86.8637 316.313C85.796 315.232 85.0027 314.347 85.101 314.347C85.1992 314.347 86.1534 315.232 87.221 316.313M303.703 325.721C303.057 326.278 301.604 327.422 300.474 328.265C299.344 329.11 298.424 329.981 298.43 330.204C298.437 330.426 298.605 330.326 298.806 329.982C299.006 329.638 299.386 329.356 299.65 329.356C299.914 329.356 300.223 329.114 300.337 328.817C300.45 328.52 300.669 328.319 300.822 328.37C300.975 328.421 301.424 328.141 301.82 327.748C302.216 327.355 303.177 326.511 303.956 325.872C304.735 325.233 305.261 324.711 305.125 324.711C304.989 324.711 304.349 325.165 303.703 325.721M189.783 330.607C189.783 331.378 189.926 331.81 190.14 331.679C190.337 331.558 190.497 331.075 190.497 330.607C190.497 330.139 190.337 329.657 190.14 329.535C189.926 329.404 189.783 329.837 189.783 330.607M296.901 330.827C296.36 331.23 295.923 331.748 295.929 331.977C295.935 332.206 296.105 332.109 296.308 331.761C296.511 331.413 296.819 331.217 296.994 331.324C297.169 331.433 297.486 331.194 297.7 330.796C298.174 329.908 298.131 329.91 296.901 330.827M291.987 334.205C290.709 335.079 289.636 335.958 289.601 336.158C289.562 336.392 289.604 336.39 289.721 336.153C289.821 335.95 290.052 335.876 290.234 335.988C290.414 336.099 290.658 335.941 290.777 335.635C290.894 335.329 291.117 335.158 291.273 335.253C291.428 335.349 291.651 335.177 291.768 334.87C291.887 334.565 292.128 334.404 292.305 334.513C292.482 334.623 292.719 334.472 292.832 334.179C292.945 333.885 293.266 333.645 293.546 333.645C293.826 333.645 294.147 333.404 294.261 333.109C294.374 332.814 294.431 332.581 294.388 332.594C294.345 332.605 293.265 333.33 291.987 334.205M256.548 335.907C256.734 336.136 256.997 337.007 257.135 337.839C257.273 338.672 257.773 339.925 258.247 340.624C258.721 341.323 259.115 342.251 259.123 342.684C259.139 343.755 259.886 344.928 260.539 344.911C262.464 344.861 259.869 335.901 257.89 335.761C257.677 335.747 257.211 335.679 256.857 335.612C256.402 335.526 256.311 335.613 256.548 335.907M283.569 339.512C283.188 339.791 282.996 340.139 283.143 340.287C283.29 340.434 283.41 340.365 283.41 340.137C283.41 339.907 283.652 339.72 283.947 339.72C284.242 339.72 284.483 339.559 284.483 339.362C284.483 338.894 284.394 338.909 283.569 339.512M119.221 340.021C119.604 340.394 120.04 340.631 120.187 340.546C120.335 340.461 120.455 340.559 120.455 340.761C120.455 341.225 122.43 342.272 122.733 341.968C122.856 341.845 122.956 341.928 122.956 342.153C122.956 342.676 125.011 343.749 125.469 343.466C125.66 343.348 125.815 343.431 125.815 343.651C125.815 343.87 125.96 343.961 126.135 343.853C126.311 343.743 126.554 343.911 126.675 344.226C126.8 344.552 127.122 344.709 127.426 344.593C127.72 344.479 127.959 344.553 127.959 344.755C127.959 344.957 128.121 345.023 128.317 344.901C128.514 344.78 128.674 344.822 128.674 344.993C128.674 345.43 131.152 346.567 131.557 346.316C131.741 346.203 131.891 346.29 131.891 346.51C131.891 346.729 132.051 346.81 132.248 346.688C132.444 346.567 132.606 346.637 132.606 346.845C132.606 347.054 132.766 347.224 132.962 347.224C133.159 347.224 133.32 347.09 133.32 346.924C133.32 346.504 131.551 345.742 131.149 345.99C130.967 346.103 130.818 346.015 130.818 345.795C130.818 345.575 130.658 345.494 130.461 345.616C130.265 345.737 130.104 345.658 130.104 345.438C130.104 345.217 129.956 345.129 129.777 345.241C129.597 345.351 129.396 345.309 129.33 345.147C129.264 344.985 126.805 343.613 123.867 342.097C120.927 340.582 118.837 339.647 119.221 340.021M281.777 340.587C281.398 340.864 281.209 341.211 281.357 341.358C281.503 341.506 281.624 341.429 281.624 341.188C281.624 340.947 281.774 340.842 281.956 340.955C282.139 341.068 282.397 340.986 282.528 340.774C282.917 340.145 282.517 340.046 281.777 340.587M276.652 343.272C274.675 344.269 273.46 345.072 273.703 345.223C273.932 345.365 274.119 345.315 274.119 345.113C274.119 344.91 274.359 344.837 274.653 344.949C274.956 345.067 275.279 344.909 275.405 344.583C275.524 344.269 275.768 344.101 275.943 344.21C276.119 344.319 276.263 344.228 276.263 344.009C276.263 343.788 276.424 343.708 276.621 343.83C276.817 343.951 276.978 343.87 276.978 343.651C276.978 343.431 277.139 343.35 277.335 343.472C277.532 343.593 277.692 343.514 277.692 343.294C277.692 343.073 277.854 342.993 278.05 343.115C278.247 343.236 278.407 343.156 278.407 342.936C278.407 342.716 278.544 342.622 278.712 342.726C279.059 342.939 280.467 342.014 280.193 341.751C280.096 341.657 278.503 342.342 276.652 343.272M272.221 345.599C271.937 345.884 271.604 346.018 271.481 345.897C271.359 345.775 271.26 345.873 271.26 346.114C271.26 346.355 271.113 346.461 270.936 346.351C270.434 346.04 269.448 346.536 269.713 346.966C269.859 347.203 269.728 347.261 269.361 347.12C268.715 346.872 266.47 347.676 266.822 348.028C266.944 348.149 266.68 348.153 266.237 348.037C265.767 347.914 265.518 347.969 265.641 348.167C265.757 348.354 265.455 348.5 264.969 348.491C264.484 348.482 263.952 348.256 263.787 347.988C263.532 347.577 263.455 347.577 263.292 347.988C263.15 348.345 263.09 348.318 263.07 347.888C263.053 347.564 262.78 347.201 262.462 347.079C262.016 346.908 261.926 347.022 262.071 347.577C262.283 348.386 261.967 348.509 261.326 347.868C260.993 347.534 260.897 347.578 260.897 348.068C260.897 348.414 260.737 348.596 260.54 348.476C260.315 348.337 260.324 348.625 260.563 349.259L260.943 350.262L260.192 349.457C259.355 348.565 258.768 348.347 259.468 349.189C259.712 349.484 259.782 349.726 259.622 349.726C259.462 349.726 259.643 349.978 260.025 350.289C260.407 350.598 260.537 350.761 260.313 350.649C259.806 350.398 257.68 351.115 257.68 351.537C257.68 351.707 257.439 351.754 257.145 351.642C256.85 351.528 256.609 351.609 256.609 351.821C256.609 352.033 256.327 352.106 255.983 351.985C255.526 351.823 255.459 351.875 255.734 352.175C256.486 352.998 272.689 346.817 272.689 345.709C272.689 345.537 272.876 345.51 273.103 345.65C273.358 345.809 273.418 345.748 273.259 345.493C272.934 344.964 272.848 344.973 272.221 345.599M264.021 347.258C264.265 347.57 264.345 347.957 264.2 348.119C264.053 348.278 264.23 348.304 264.589 348.175C264.949 348.046 265.311 347.939 265.393 347.939C265.475 347.939 265.54 347.657 265.538 347.313C265.533 346.8 265.474 346.78 265.207 347.201C264.925 347.647 264.797 347.647 264.23 347.201C263.646 346.743 263.624 346.748 264.021 347.258M134.392 347.603C134.392 347.811 134.553 347.881 134.75 347.76C134.946 347.639 135.107 347.719 135.107 347.939C135.107 348.159 135.285 348.228 135.502 348.095C135.778 347.924 135.751 347.756 135.413 347.542C134.757 347.126 134.392 347.147 134.392 347.603M189.758 349.256C189.039 351.145 189.475 353.836 190.497 353.836C191.333 353.836 191.398 353.705 191.499 351.79C191.656 348.765 190.554 347.161 189.758 349.256M141.182 350.462C141.182 350.67 141.329 350.749 141.509 350.638C141.688 350.527 141.908 350.638 141.996 350.886C142.084 351.133 142.294 351.205 142.463 351.046C142.631 350.888 142.533 350.61 142.243 350.426C141.547 349.987 141.182 349.999 141.182 350.462M142.968 351.177C142.968 351.385 143.117 351.463 143.296 351.353C143.475 351.242 143.694 351.353 143.782 351.601C143.871 351.847 144.081 351.92 144.25 351.761C144.418 351.602 144.32 351.324 144.03 351.141C143.335 350.701 142.968 350.714 142.968 351.177M145.828 352.249C145.828 352.499 145.933 352.598 146.063 352.468C146.193 352.339 146.499 352.401 146.746 352.605C147.056 352.862 147.264 352.861 147.425 352.602C147.553 352.396 147.5 352.227 147.307 352.227C147.115 352.227 146.704 352.13 146.394 352.01C146.06 351.882 145.828 351.981 145.828 352.249M149.044 353.321C149.044 353.571 149.15 353.671 149.278 353.541C149.408 353.411 149.716 353.473 149.963 353.677C150.272 353.935 150.481 353.934 150.641 353.673C150.769 353.469 150.715 353.3 150.523 353.3C150.332 353.3 149.92 353.202 149.609 353.082C149.277 352.955 149.044 353.053 149.044 353.321M250.196 353.798C249.475 354.059 249.132 354.346 249.367 354.492C249.589 354.629 249.872 354.574 249.997 354.371C250.123 354.168 250.364 354.089 250.533 354.192C250.703 354.297 250.945 354.217 251.07 354.015C251.195 353.811 251.436 353.731 251.606 353.836C251.775 353.94 252.015 353.862 252.138 353.663C252.428 353.193 251.738 353.241 250.196 353.798M154.565 355.057C154.713 355.297 154.923 355.401 155.032 355.292C155.143 355.182 155.451 355.274 155.72 355.497C156.154 355.857 156.893 355.668 156.518 355.295C156.09 354.866 154.314 354.652 154.565 355.057M167.27 358.303C167.27 358.499 167.511 358.66 167.805 358.66C168.1 358.66 168.341 358.499 168.341 358.303C168.341 358.106 168.1 357.945 167.805 357.945C167.511 357.945 167.27 358.106 167.27 358.303M168.877 358.66C168.998 358.856 169.33 359.018 169.613 359.018C169.897 359.018 170.128 358.856 170.128 358.66C170.128 358.463 169.797 358.303 169.391 358.303C168.987 358.303 168.756 358.463 168.877 358.66M170.485 359.018C170.485 359.214 170.807 359.374 171.2 359.374C171.593 359.374 171.915 359.214 171.915 359.018C171.915 358.821 171.593 358.66 171.2 358.66C170.807 358.66 170.485 358.821 170.485 359.018M230.164 359.018C230.164 359.464 230.543 359.464 231.236 359.018C231.67 358.737 231.619 358.67 230.968 358.665C230.526 358.662 230.164 358.821 230.164 359.018M172.451 359.374C172.572 359.571 172.985 359.732 173.365 359.732C173.747 359.732 174.059 359.571 174.059 359.374C174.059 359.178 173.647 359.018 173.144 359.018C172.626 359.018 172.325 359.171 172.451 359.374M189.81 360.235C189.377 360.757 185.851 361.185 185.852 360.715C185.852 360.567 185.128 360.447 184.244 360.447C181.66 360.447 182.388 360.983 185.603 361.447C189.429 362.001 195.5 362.02 195.5 361.479C195.5 361.212 194.695 361.126 193.052 361.219C191.508 361.306 190.464 361.207 190.224 360.949C189.942 360.647 190.228 360.564 191.332 360.628C192.15 360.676 192.459 360.644 192.017 360.557C191.574 360.47 191.212 360.249 191.212 360.065C191.212 359.556 190.28 359.668 189.81 360.235M180.312 360.447C181.3 360.871 181.921 360.871 181.921 360.447C181.921 360.25 181.398 360.101 180.759 360.114C179.787 360.135 179.715 360.189 180.312 360.447M220.515 360.447C220.515 360.866 220.79 360.866 221.766 360.447C222.4 360.174 222.369 360.136 221.498 360.114C220.957 360.101 220.515 360.25 220.515 360.447M216.585 360.804C216.585 361 217.137 361.162 217.814 361.162C218.49 361.162 219.143 361 219.265 360.804C219.398 360.588 218.911 360.447 218.036 360.447C217.237 360.447 216.585 360.607 216.585 360.804M211.939 361.162C211.939 361.358 212.753 361.519 213.747 361.519C214.862 361.519 215.47 361.382 215.333 361.162C215.212 360.965 214.398 360.804 213.526 360.804C212.652 360.804 211.939 360.965 211.939 361.162M206.221 361.523C206.221 361.747 206.801 361.796 207.74 361.652C209.821 361.333 209.873 361.162 207.89 361.162C206.972 361.162 206.221 361.324 206.221 361.523" fill="#000000" fill-rule="evenodd" opacity="1" stroke="none"/>
<path d="M191.57 30.1361C170.79 31.7031 154.043 35.5225 137.787 42.4024C100.427 58.2137 76.435 79.2372 56.0219 114.049C51.6692 121.471 44.7026 137.271 42.3136 145.138C39.445 154.584 35.5774 172.348 35.7981 175.064C35.8624 175.852 36.4547 173.129 37.0221 169.439C38.7177 158.413 42.5647 144.37 46.3705 135.311C66.7971 86.6898 100.637 55.0216 150.181 38.1633C163.195 33.7347 182.536 30.6936 200.503 30.2505L209.616 30.0263L201.397 30.0209C196.876 30.0182 192.454 30.07 191.57 30.1361M210.867 30.4979C236.127 33.2389 246.287 35.5689 264.583 42.8179C283.977 50.5002 304.707 64.3371 319.71 79.6105C322.87 82.8277 326.649 86.9069 328.107 88.6758C329.565 90.4448 330.839 91.9725 330.938 92.0708C331.317 92.4478 333.677 95.513 334.347 96.4984C334.733 97.0666 335.37 97.9699 335.763 98.5049C347.572 114.595 357.188 134.5 362.176 153.179C363.667 158.767 364.473 161.397 364.506 160.795C364.544 160.14 361.048 147.299 359.903 143.888C351.767 119.63 337.24 96.2554 318.985 78.0489C314.16 73.2371 312.245 71.5601 304.138 65.0482C286.023 50.4984 259.935 38.3902 236.419 33.6195C229.72 32.2606 214.305 30.2148 211.439 30.305C210.051 30.3488 209.914 30.3943 210.867 30.4979M198.934 129.238C197.973 129.613 194.998 131.587 192.323 133.624C183.545 140.31 180.269 142.174 173.112 144.552C165.103 147.213 162.263 147.501 153.616 146.533C149.673 146.09 148.753 146.798 144.065 153.884C140.338 159.521 132.923 173.416 132.201 176.118C130.485 182.545 139.484 186.148 150.473 183.431C153.323 182.726 158.389 181.648 161.73 181.033C165.721 180.3 170.043 179.191 174.327 177.8C181.343 175.523 182.851 175.377 184.4 176.821C186.232 178.527 185.075 180.537 181.113 182.529C179.52 183.331 177.594 184.379 176.833 184.859C174.127 186.566 167.043 189.905 164.053 190.881C159.081 192.503 158.739 192.772 148.541 203.033C137.531 214.11 138.222 213.673 133.524 212.552C130.866 211.918 129.383 211.795 125.279 211.865C116.538 212.015 113.205 209.184 116.336 204.265C118.74 200.488 118.828 200.149 117.982 197.94C117.041 195.483 117.034 192.637 117.958 189.687C119.781 183.873 116.372 177.606 112.127 178.969C108.337 180.186 102.795 183.587 99.3935 186.784C96.2479 189.742 91.6299 191.199 89.3205 189.963C88.2565 189.394 86.8386 190.469 85.0465 193.203C84.2094 194.48 82.2939 196.813 80.7904 198.385C79.2858 199.957 77.3856 202.159 76.5682 203.276C74.8707 205.596 73.4762 206.737 71.0479 207.792C69.2415 208.577 65.8323 211.064 64.3501 212.679C62.2944 214.918 51.9141 220.72 49.9638 220.72C49.4473 220.72 48.9346 220.868 48.822 221.049C48.7104 221.231 48.1448 221.484 47.5667 221.61C46.9772 221.74 46.4179 222.145 46.2955 222.531C46.1749 222.911 45.7327 223.406 45.3118 223.631C44.6239 224 44.221 224.091 42.6192 224.247C42.3618 224.272 42.2502 224.452 42.3699 224.646C42.4905 224.84 42.3753 224.917 42.1153 224.818C41.5712 224.61 40.2909 226.544 40.685 226.981C40.827 227.138 40.7421 227.151 40.4964 227.01C40.2508 226.868 40.0497 226.933 40.0497 227.152C40.0497 227.372 39.8908 227.453 39.6968 227.333C39.235 227.049 39.6977 228.322 40.1713 228.638C40.383 228.78 40.2865 229.11 39.9291 229.468C39.6022 229.794 39.3377 230.251 39.3404 230.483C39.344 230.73 39.4896 230.682 39.6924 230.368C39.9443 229.979 40.0399 229.96 40.0444 230.3C40.047 230.557 40.2106 230.668 40.4071 230.547C40.6037 230.426 40.7644 230.479 40.7644 230.667C40.7644 230.853 40.5232 231.1 40.2285 231.213C39.9336 231.325 39.7041 231.786 39.7174 232.233C39.738 232.891 39.7898 232.93 39.9854 232.436C40.2489 231.773 40.6438 231.935 41.4792 233.048C41.9732 233.707 41.9669 233.726 41.4059 233.286C40.6885 232.725 40.0328 233.017 40.0909 233.874C40.1283 234.419 40.1489 234.417 40.2963 233.854C40.4375 233.313 40.5277 233.296 40.9682 233.737C41.2478 234.017 41.3801 234.5 41.2612 234.808C41.121 235.174 41.2433 235.371 41.6088 235.371C41.9563 235.371 42.0948 235.571 41.9706 235.896C41.8598 236.184 41.6034 236.385 41.4005 236.343C41.1978 236.3 40.9842 236.471 40.9253 236.72C40.8663 236.971 40.894 237.029 40.9869 236.847C41.0798 236.667 41.4953 236.608 41.9098 236.716C42.42 236.85 42.5816 236.781 42.4101 236.504C42.2449 236.237 42.3529 236.17 42.7219 236.311C43.2293 236.506 43.2258 236.572 42.6862 236.967C41.9821 237.483 42.3235 238.296 43.1159 237.991C43.4169 237.876 43.861 238.061 44.1156 238.409C44.6597 239.153 46.317 238.53 45.9989 237.702C45.8988 237.441 45.9265 237.118 46.0606 236.985C46.1937 236.851 46.3241 236.433 46.3482 236.056C46.3723 235.68 46.4134 235.13 46.4376 234.835C46.5572 233.394 47.5543 234.372 47.5543 235.93C47.5543 237.639 48.035 238.945 48.6648 238.945C48.8684 238.945 49.2758 239.186 49.5706 239.48C50.2237 240.134 51.3467 240.178 51.7353 239.569C52.2687 238.731 54.6237 237.179 58.3617 235.2L62.089 233.227L66.5255 233.222C71.3731 233.219 72.7426 232.941 77.709 230.954C82.6746 228.968 84.003 228.795 90.6008 229.273C108.592 230.576 108.938 230.701 116.472 238.594C121.626 243.997 122.219 244.871 123.844 249.486C125.099 253.048 130.065 257.03 132.859 256.716C136.075 256.354 136.839 254.711 135.732 250.533C134.294 245.106 135.317 244.342 144.636 243.87C159.608 243.111 168.91 244.672 179.503 249.721C183.035 251.404 184.27 251.835 185.015 251.649C186.236 251.342 188.353 249.052 188.353 248.038C188.353 247.612 188.756 246.672 189.247 245.947C189.738 245.223 190.143 244.436 190.145 244.2C190.149 243.934 190.283 243.974 190.497 244.306C190.756 244.705 190.838 244.524 190.825 243.591C190.809 242.568 190.749 242.47 190.497 243.054C190.266 243.595 190.184 243.36 190.165 242.097C190.151 241.161 190.347 240.217 190.61 239.953C190.868 239.694 191.663 238.596 192.376 237.515C194.063 234.96 194.809 234.169 197.823 231.74C199.199 230.631 201.101 228.912 202.049 227.92C205.31 224.51 209.259 223.048 214.565 223.284C220.426 223.544 220.626 227.908 214.848 229.496C205.072 232.183 203.3 235.318 208.234 241.206C210.324 243.7 209.022 245.803 204.077 247.919C195.168 251.731 193.987 256.552 194.331 287.724C194.507 303.666 193.994 310.55 192.056 318.278C190.513 324.428 190.493 324.39 187.801 310.059C186.299 302.063 186.233 301.195 185.885 284.508C185.516 266.836 185.118 265.749 179.023 265.748C177.063 265.747 176.303 265.557 174.556 264.627C167.935 261.104 168.667 261.342 164.073 261.229C161.75 261.17 159.148 260.962 158.289 260.764C155.954 260.226 153.994 260.312 152.702 261.012C150.245 262.342 143.878 267.845 141.197 270.954C134.194 279.078 130.461 280.454 130.461 274.912C130.461 271.212 128.366 269.297 122.956 268.055C120.683 267.532 117.953 266.366 117.953 265.916C117.953 265.844 118.517 264.825 119.205 263.651C121.049 260.505 120.754 258.778 118.167 257.57C116.687 256.879 116.203 256.866 111.031 257.387C109.128 257.579 108.67 257.475 106.138 256.288C102.972 254.802 102.237 254.802 99.6133 256.286C97.8845 257.263 95.3705 257.372 94.2252 256.519C91.3359 254.365 86.6188 253.533 85.8961 255.048C84.1665 258.675 80.7877 257.935 80.3043 253.825C79.8622 250.06 81.1906 248.705 84.0218 250.031C87.279 251.557 88.6504 249.835 88.6504 244.224C88.6504 239.811 86.3892 238.766 80.9672 240.675C78.5318 241.533 77.1436 241.808 75.2495 241.808C71.734 241.807 64.6172 244.282 58.7387 247.547C57.7166 248.115 56.7955 248.445 56.6928 248.278C56.5892 248.111 56.1022 248.051 55.61 248.146C54.3181 248.393 52.9968 247.976 52.7771 247.253C52.6725 246.909 52.6618 247.191 52.7538 247.879C52.8459 248.567 53.021 250.21 53.1434 251.532C53.3238 253.476 53.498 253.977 54.0546 254.154C54.8703 254.413 55.4162 255.687 55.4162 257.331C55.4162 258.2 55.6537 258.673 56.3042 259.099C56.792 259.419 57.2941 260.088 57.4191 260.587C57.6961 261.692 58.694 261.626 58.9736 260.484C59.2444 259.384 59.9474 259.927 60.1815 261.417C60.286 262.082 60.5434 262.797 60.7532 263.008C60.9624 263.216 61.1339 263.768 61.1339 264.231C61.1339 264.702 61.292 264.977 61.4912 264.853C61.6878 264.732 61.8549 264.923 61.862 265.279C61.9147 267.817 62.8912 270.097 63.9847 270.238C64.0875 270.251 64.7217 270.499 65.3936 270.788L66.6167 271.315L65.483 272.474C64.1688 273.818 64.1813 273.775 64.9049 274.591C65.2095 274.935 65.7473 275.606 66.0993 276.081C67.4984 277.967 68.7938 274.473 67.5538 272.156C67.3233 271.725 67.3064 271.227 67.5091 270.839C67.6878 270.495 67.7048 269.892 67.5466 269.499C67.3885 269.106 67.2482 268.995 67.234 269.253C67.2206 269.51 67.0625 269.629 66.8837 269.519C66.7042 269.408 66.6113 269.037 66.6774 268.693C66.7435 268.35 66.8114 267.989 66.8302 267.891C66.8481 267.793 67.0186 267.953 67.2089 268.248C67.5065 268.709 67.5565 268.698 67.5609 268.17C67.5645 267.805 67.7602 267.63 68.0452 267.74C68.3087 267.841 68.7304 267.675 68.9824 267.371C69.2343 267.067 69.3361 266.818 69.2093 266.818C68.9734 266.818 69.8865 264.884 70.4582 264.173C70.6307 263.957 71.1909 263.259 71.7027 262.62C73.7459 260.07 76.2064 261.071 77.709 265.065C78.9678 268.409 79.913 269.912 82.4145 272.545C84.2121 274.436 84.6793 275.176 84.8937 276.476C85.3377 279.162 86.1677 281.219 87.4345 282.777C90.0727 286.019 89.4804 287.643 84.3961 291.096C83.1739 291.926 82.0822 292.845 81.9696 293.137C81.8204 293.527 81.3264 293.639 80.1301 293.556L78.4952 293.442L78.4353 295.201C78.3969 296.351 78.1772 297.105 77.8011 297.38C77.4848 297.611 77.3187 297.894 77.4321 298.007C77.6081 298.183 76.6754 298.102 76.143 297.894C76.0446 297.855 75.8177 297.852 75.64 297.886C75.4612 297.919 75.179 297.738 75.0137 297.481C74.8126 297.171 74.751 297.294 74.8278 297.849C74.8922 298.308 75.1476 298.807 75.3951 298.96C75.7338 299.17 75.6953 299.297 75.2388 299.472C74.7805 299.647 74.7286 299.82 75.027 300.18C75.5712 300.834 75.0878 301.217 74.3892 300.686C74.0765 300.448 74.1819 300.66 74.6242 301.159C75.5872 302.244 75.6569 302.719 74.8037 302.391C74.1863 302.155 74.5571 302.624 77.55 305.86C78.2317 306.597 78.6944 307.2 78.5783 307.2C77.2249 307.2 97.0269 324.997 103.391 329.499C104.718 330.438 105.803 331.362 105.803 331.553C105.803 331.743 105.954 331.807 106.139 331.692C106.323 331.579 106.639 331.77 106.842 332.119C107.045 332.466 107.216 332.622 107.223 332.466C107.237 332.063 110.449 334.321 110.449 334.734C110.449 334.921 110.591 335.034 110.765 334.985C111.216 334.858 115.095 337.237 115.095 337.64C115.095 337.824 115.256 337.875 115.452 337.754C115.649 337.633 115.809 337.73 115.809 337.971C115.809 338.213 115.911 338.308 116.035 338.184C116.365 337.853 117.601 338.599 117.568 339.107C117.547 339.432 117.495 339.428 117.359 339.093C117.26 338.845 117.031 338.735 116.851 338.845C116.671 338.956 116.524 338.851 116.524 338.61C116.524 338.368 116.423 338.271 116.3 338.395C115.997 338.699 114.023 337.651 114.023 337.188C114.023 336.985 113.861 336.919 113.663 337.041C113.466 337.164 113.207 337.012 113.089 336.708C112.973 336.401 112.738 336.236 112.569 336.34C112.401 336.444 111.948 336.216 111.565 335.831C111.18 335.448 110.777 335.223 110.666 335.334C110.557 335.444 110.365 335.271 110.242 334.949C110.117 334.626 109.89 334.443 109.734 334.539C109.577 334.636 108.956 334.253 108.354 333.69C107.751 333.127 107.176 332.748 107.075 332.849C106.975 332.949 106.791 332.77 106.668 332.448C106.544 332.125 106.298 331.952 106.12 332.061C105.944 332.171 105.702 332.009 105.584 331.705C105.468 331.398 105.238 331.23 105.076 331.33C104.913 331.43 104.554 331.19 104.277 330.794C104.001 330.399 103.672 330.179 103.547 330.304C103.421 330.429 103.218 330.268 103.095 329.946C102.971 329.623 102.724 329.45 102.546 329.561C102.368 329.671 101.741 329.28 101.154 328.693C100.567 328.106 100.086 327.704 100.086 327.799C100.086 328.025 96.2774 325.105 93.2961 322.591C89.7805 319.629 84.7481 314.643 84.8276 314.202C84.866 313.988 84.7141 313.846 84.4899 313.889C82.3163 314.296 64.6092 292.402 58.56 281.827C54.278 274.342 46.8396 259.335 46.8396 258.181C46.8396 258.028 46.3571 256.85 45.7674 255.562C45.1779 254.274 44.6954 253.069 44.6954 252.884C44.6954 252.698 44.3478 251.88 43.9236 251.066C43.4992 250.251 42.7702 248.197 42.3029 246.499C41.8365 244.801 41.121 242.206 40.7136 240.732C39.3511 235.799 38.9893 234.13 38.983 232.763C38.9803 232.015 38.7249 230.916 38.4157 230.317C38.1057 229.719 37.6948 227.686 37.5018 225.799C37.0051 220.942 36.4815 218.987 36.7156 222.864C36.9711 227.087 38.4077 235.176 39.6673 239.48C50.6481 277.002 71.3115 307.976 99.5499 329.244C114.128 340.223 130.336 348.632 148.687 354.738C185.604 367.019 225.922 365.808 263.041 351.302C266.284 350.035 269.822 348.657 270.903 348.241C288.128 341.604 315.491 320.849 328.778 304.341C330.439 302.278 331.899 300.508 332.022 300.41C336.788 296.599 349.293 275.323 355.264 260.862C360.113 249.12 366.317 226.409 366.318 220.392C366.318 219.049 365.956 220.614 365.254 225.008C364.828 227.661 364.178 230.797 363.808 231.976C363.439 233.156 363.034 234.764 362.909 235.55C362.266 239.606 357.517 254.394 355.07 259.96C354.377 261.536 353.81 262.928 353.81 263.054C353.81 264.278 349.473 271.935 347.579 274.056C347.272 274.399 347.141 274.683 347.288 274.686C347.436 274.689 347.35 274.823 347.097 274.983C346.844 275.144 346.557 275.718 346.458 276.26C346.251 277.408 345.302 278.969 344.813 278.969C344.629 278.969 344.569 279.118 344.682 279.3C344.967 279.763 342.844 283.457 342.361 283.338C342.143 283.284 342.06 283.395 342.177 283.584C342.426 283.987 338.896 289.318 338.204 289.584C337.945 289.684 337.822 289.909 337.93 290.084C338.04 290.26 337.958 290.404 337.751 290.404C337.542 290.404 337.371 290.614 337.371 290.87C337.371 291.127 336.827 291.931 336.162 292.658C335.496 293.384 335.054 293.983 335.179 293.99C335.304 293.997 335.051 294.297 334.617 294.661C334.183 295.022 333.942 295.445 334.082 295.599C334.221 295.753 334.133 295.764 333.888 295.623C333.617 295.467 333.441 295.57 333.441 295.881C333.441 296.165 333.016 296.675 332.498 297.015C331.614 297.595 331.629 297.541 332.736 296.163C333.386 295.355 334.079 294.692 334.275 294.692C334.471 294.692 334.541 294.602 334.431 294.493C334.146 294.208 339.899 286.274 340.304 286.393C340.49 286.447 340.545 286.336 340.429 286.147C340.203 285.784 342.817 281.507 343.55 281.041C343.788 280.89 343.859 280.764 343.707 280.761C343.287 280.753 344.836 277.897 345.262 277.897C345.466 277.897 345.534 277.736 345.412 277.539C345.291 277.343 345.388 277.182 345.629 277.182C345.87 277.182 345.967 277.083 345.846 276.961C345.724 276.839 346.193 275.611 346.888 274.232C347.8 272.419 347.992 271.784 347.578 271.943C347.107 272.124 347.07 272.04 347.37 271.478C347.618 271.013 347.619 270.721 347.373 270.568C347.173 270.444 347.117 270.168 347.248 269.955C347.396 269.716 347.321 269.671 347.051 269.837C346.777 270.007 346.546 269.845 346.429 269.396C346.327 269.006 345.638 268.413 344.898 268.079C341.008 266.324 333.129 253.292 319.665 226.335C309.842 206.67 306.286 200.142 302.489 194.811C299.329 190.37 297.633 187.825 290.603 176.953C284.152 166.982 281.943 165.071 275.191 163.626C273.057 163.17 270.275 162.202 267.702 161.019C259.692 157.338 250.786 158.426 242.322 164.12C232.703 170.592 230.201 170.291 228.555 162.467C227.807 158.912 228.243 157.247 230.948 153.303C234.898 147.545 234.884 147.353 230.323 144.381C228.67 143.304 225.935 141.237 224.246 139.79C222.274 138.101 220.449 136.879 219.148 136.377C214.623 134.633 213.462 134.086 211.582 132.811C206.07 129.076 202.17 127.974 198.934 129.238M364.608 161.935C364.612 162.328 364.738 163.131 364.888 163.721C365.133 164.684 365.162 164.702 365.167 163.9C365.171 163.408 365.045 162.604 364.888 162.112C364.664 161.413 364.603 161.374 364.608 161.935M365.307 165.865C365.295 166.455 365.42 167.581 365.583 168.367C365.839 169.61 365.88 169.656 365.899 168.724C365.91 168.134 365.786 167.009 365.623 166.223C365.366 164.979 365.325 164.932 365.307 165.865M366.415 173.548C366.415 174.433 366.485 174.795 366.57 174.353C366.655 173.91 366.655 173.186 366.57 172.744C366.485 172.302 366.415 172.664 366.415 173.548M366.737 176.407C366.717 177.096 366.867 179.266 367.07 181.232C367.274 183.197 367.563 187.539 367.712 190.88L367.983 196.956L368.01 191.953C368.035 187.636 366.834 172.989 366.737 176.407M35.0556 181.855C34.4276 189.722 34.5089 205.991 35.2066 212.143C35.5087 214.796 35.7561 217.196 35.7579 217.474C35.7597 217.752 35.841 217.9 35.9392 217.803C36.0366 217.705 35.8776 214.824 35.5863 211.4C34.9583 204.025 34.8913 190.892 35.4389 182.421C35.6543 179.087 35.7606 176.287 35.6748 176.202C35.589 176.116 35.3103 178.659 35.0556 181.855M367.608 204.062C367.475 206.301 367.212 209.068 367.027 210.213C366.841 211.358 366.624 213.909 366.546 215.882C366.469 217.855 366.47 218.825 366.549 218.039C366.628 217.253 366.928 214.754 367.214 212.484C367.795 207.883 368.313 199.993 368.033 199.993C367.933 199.993 367.743 201.824 367.608 204.062M186.916 221.823C194.57 222.767 195.624 226.86 188.711 228.787C187.63 229.089 186.022 229.581 185.137 229.881C180.553 231.44 176.26 231.143 172.004 228.974C169.537 227.717 165.84 224.49 165.84 223.594C165.84 221.459 176.616 220.553 186.916 221.823M57.1797 251.533C56.9198 252.439 56.993 252.747 57.5862 253.262C58.4001 253.968 58.837 255.949 58.4867 257.345C58.1026 258.873 57.0689 257.499 57.0439 255.428C57.0332 254.519 56.8518 253.663 56.6401 253.525C55.87 253.021 55.2642 250.458 55.7718 249.847C56.5668 248.889 57.588 250.111 57.1797 251.533M48.7693 253.049C48.7693 254.049 49.0668 253.936 49.2285 252.873C49.2884 252.484 49.2088 252.167 49.0525 252.167C48.8971 252.167 48.7693 252.564 48.7693 253.049M108.484 266.351C112.428 266.642 112.846 268.135 110.271 272.736C106.532 279.425 99.783 278.939 100.609 272.041C101.229 266.86 102.625 265.116 105.446 265.999C105.741 266.091 107.108 266.249 108.484 266.351M70.2465 276.824C70.3681 277.021 70.2054 277.182 69.8847 277.182C69.3665 277.182 69.3621 277.242 69.8382 277.718C70.586 278.466 70.7825 278.392 70.7825 277.361C70.7825 276.87 70.6119 276.468 70.4037 276.468C70.1955 276.468 70.125 276.628 70.2465 276.824M330.54 299.427C329.777 300.263 329.153 301.061 329.153 301.2C329.153 301.341 328.79 301.791 328.348 302.204C327.906 302.615 327.544 303.09 327.544 303.258C327.544 303.425 327.105 303.908 326.568 304.329C326.031 304.751 325.625 305.209 325.665 305.344C325.762 305.67 309.512 321.664 309.333 321.421C309.29 321.363 312.883 317.778 317.316 313.454C321.75 309.13 325.346 305.483 325.308 305.349C325.269 305.215 325.756 304.67 326.391 304.135C327.025 303.602 327.529 303.069 327.512 302.949C327.463 302.624 331.336 297.909 331.653 297.909C331.805 297.909 331.303 298.592 330.54 299.427M241.779 308.715C244.954 309.858 246.04 311.681 247.883 318.962C249.624 325.839 249.56 325.838 242.641 318.761C234.562 310.499 234.175 305.978 241.779 308.715M81.146 310.595C81.8124 311.283 82.4386 311.845 82.5369 311.845C82.6352 311.845 82.1697 311.283 81.5033 310.595C80.8368 309.907 80.2105 309.344 80.1123 309.344C80.014 309.344 80.4794 309.907 81.146 310.595M86.8637 316.313C87.9313 317.394 88.8854 318.278 88.9837 318.278C89.082 318.278 88.2886 317.394 87.221 316.313C86.1534 315.232 85.1992 314.347 85.101 314.347C85.0027 314.347 85.796 315.232 86.8637 316.313M303.956 325.872C303.177 326.511 302.216 327.355 301.82 327.748C301.424 328.141 300.975 328.421 300.822 328.37C300.669 328.319 300.45 328.52 300.337 328.817C300.223 329.114 299.914 329.356 299.65 329.356C299.386 329.356 299.006 329.638 298.806 329.982C298.605 330.326 298.437 330.426 298.43 330.204C298.424 329.981 299.344 329.11 300.474 328.265C301.604 327.422 303.057 326.278 303.703 325.721C304.349 325.165 304.989 324.711 305.125 324.711C305.261 324.711 304.735 325.233 303.956 325.872M190.497 330.607C190.497 331.075 190.337 331.558 190.14 331.679C189.926 331.81 189.783 331.378 189.783 330.607C189.783 329.837 189.926 329.404 190.14 329.535C190.337 329.657 190.497 330.139 190.497 330.607M297.7 330.796C297.486 331.194 297.169 331.433 296.994 331.324C296.819 331.217 296.511 331.413 296.308 331.761C296.105 332.109 295.935 332.206 295.929 331.977C295.923 331.748 296.36 331.23 296.901 330.827C298.131 329.91 298.174 329.908 297.7 330.796M294.261 333.109C294.147 333.404 293.826 333.645 293.546 333.645C293.266 333.645 292.945 333.885 292.832 334.179C292.719 334.472 292.482 334.623 292.305 334.513C292.128 334.404 291.887 334.565 291.768 334.87C291.651 335.177 291.428 335.349 291.273 335.253C291.117 335.158 290.894 335.329 290.777 335.635C290.658 335.941 290.414 336.099 290.234 335.988C290.052 335.876 289.821 335.95 289.721 336.153C289.604 336.39 289.562 336.392 289.601 336.158C289.648 335.888 293.895 332.724 294.388 332.594C294.431 332.581 294.374 332.814 294.261 333.109M257.89 335.761C259.869 335.901 262.464 344.861 260.539 344.911C259.886 344.928 259.139 343.755 259.123 342.684C259.115 342.251 258.721 341.323 258.247 340.624C257.773 339.925 257.273 338.672 257.135 337.839C256.997 337.007 256.734 336.136 256.548 335.907C256.311 335.613 256.402 335.526 256.857 335.612C257.211 335.679 257.677 335.747 257.89 335.761M284.483 339.362C284.483 339.559 284.242 339.72 283.947 339.72C283.652 339.72 283.41 339.907 283.41 340.137C283.41 340.365 283.29 340.434 283.143 340.287C282.996 340.139 283.188 339.791 283.569 339.512C284.394 338.909 284.483 338.894 284.483 339.362M129.33 345.147C129.396 345.309 129.597 345.351 129.777 345.241C129.956 345.129 130.104 345.217 130.104 345.438C130.104 345.658 130.265 345.737 130.461 345.616C130.658 345.494 130.818 345.575 130.818 345.795C130.818 346.015 130.967 346.103 131.149 345.99C131.551 345.742 133.32 346.504 133.32 346.924C133.32 347.09 133.159 347.224 132.962 347.224C132.766 347.224 132.606 347.054 132.606 346.845C132.606 346.637 132.444 346.567 132.248 346.688C132.051 346.81 131.891 346.729 131.891 346.51C131.891 346.29 131.741 346.203 131.557 346.316C131.152 346.567 128.674 345.43 128.674 344.993C128.674 344.822 128.514 344.78 128.317 344.901C128.121 345.023 127.959 344.957 127.959 344.755C127.959 344.553 127.72 344.479 127.426 344.593C127.122 344.709 126.8 344.552 126.675 344.226C126.554 343.911 126.311 343.743 126.135 343.853C125.96 343.961 125.815 343.87 125.815 343.651C125.815 343.431 125.66 343.348 125.469 343.466C125.011 343.749 122.956 342.676 122.956 342.153C122.956 341.928 122.856 341.845 122.733 341.968C122.43 342.272 120.455 341.225 120.455 340.761C120.455 340.559 120.335 340.461 120.187 340.546C120.04 340.631 119.604 340.394 119.221 340.021C118.837 339.647 120.927 340.582 123.867 342.097C126.805 343.613 129.264 344.985 129.33 345.147M282.528 340.774C282.397 340.986 282.139 341.068 281.956 340.955C281.774 340.842 281.624 340.947 281.624 341.188C281.624 341.429 281.503 341.506 281.357 341.358C281.209 341.211 281.398 340.864 281.777 340.587C282.517 340.046 282.917 340.145 282.528 340.774M279.694 342.418C279.321 342.69 278.88 342.828 278.712 342.726C278.544 342.622 278.407 342.716 278.407 342.936C278.407 343.156 278.247 343.236 278.05 343.115C277.854 342.993 277.692 343.073 277.692 343.294C277.692 343.514 277.532 343.593 277.335 343.472C277.139 343.35 276.978 343.431 276.978 343.651C276.978 343.87 276.817 343.951 276.621 343.83C276.424 343.708 276.263 343.788 276.263 344.009C276.263 344.228 276.119 344.319 275.943 344.21C275.768 344.101 275.524 344.269 275.405 344.583C275.279 344.909 274.956 345.067 274.653 344.949C274.359 344.837 274.119 344.91 274.119 345.113C274.119 345.315 273.932 345.365 273.703 345.223C273.46 345.072 274.675 344.269 276.652 343.272C279.795 341.691 281.246 341.282 279.694 342.418M273.259 345.493C273.418 345.748 273.358 345.809 273.103 345.65C272.876 345.51 272.689 345.537 272.689 345.709C272.689 346.817 256.486 352.998 255.734 352.175C255.459 351.875 255.526 351.823 255.983 351.985C256.327 352.106 256.609 352.033 256.609 351.821C256.609 351.609 256.85 351.528 257.145 351.642C257.439 351.754 257.68 351.707 257.68 351.537C257.68 351.115 259.806 350.398 260.313 350.649C260.537 350.761 260.407 350.598 260.025 350.289C259.643 349.978 259.462 349.726 259.622 349.726C259.782 349.726 259.712 349.484 259.468 349.189C258.768 348.347 259.355 348.565 260.192 349.457L260.943 350.262L260.563 349.259C260.324 348.625 260.315 348.337 260.54 348.476C260.737 348.596 260.897 348.414 260.897 348.068C260.897 347.578 260.993 347.534 261.326 347.868C261.967 348.509 262.283 348.386 262.071 347.577C261.926 347.022 262.016 346.908 262.462 347.079C262.78 347.201 263.053 347.564 263.07 347.888C263.09 348.318 263.15 348.345 263.292 347.988C263.455 347.577 263.532 347.577 263.787 347.988C263.952 348.256 264.484 348.482 264.969 348.491C265.455 348.5 265.757 348.354 265.641 348.167C265.518 347.969 265.767 347.914 266.237 348.037C266.68 348.153 266.944 348.149 266.822 348.028C266.47 347.676 268.715 346.872 269.361 347.12C269.728 347.261 269.859 347.203 269.713 346.966C269.448 346.536 270.434 346.04 270.936 346.351C271.113 346.461 271.26 346.355 271.26 346.114C271.26 345.873 271.359 345.775 271.481 345.897C271.604 346.018 271.937 345.884 272.221 345.599C272.848 344.973 272.934 344.964 273.259 345.493M265.207 347.201C265.474 346.78 265.533 346.8 265.538 347.313C265.54 347.657 265.475 347.939 265.393 347.939C265.311 347.939 264.949 348.046 264.589 348.175C264.23 348.304 264.053 348.278 264.2 348.119C264.345 347.957 264.265 347.57 264.021 347.258C263.624 346.748 263.646 346.743 264.23 347.201C264.797 347.647 264.925 347.647 265.207 347.201M135.413 347.542C135.751 347.756 135.778 347.924 135.502 348.095C135.285 348.228 135.107 348.159 135.107 347.939C135.107 347.719 134.946 347.639 134.75 347.76C134.553 347.881 134.392 347.811 134.392 347.603C134.392 347.147 134.757 347.126 135.413 347.542M191.218 349.02C192.01 350.502 191.512 353.836 190.497 353.836C189.676 353.836 189.595 353.69 189.499 352.025C189.327 349.083 190.32 347.345 191.218 349.02M142.243 350.426C142.533 350.61 142.631 350.888 142.463 351.046C142.294 351.205 142.084 351.133 141.996 350.886C141.908 350.638 141.688 350.527 141.509 350.638C141.329 350.749 141.182 350.67 141.182 350.462C141.182 349.999 141.547 349.987 142.243 350.426M144.03 351.141C144.32 351.324 144.418 351.602 144.25 351.761C144.081 351.92 143.871 351.847 143.782 351.601C143.694 351.353 143.475 351.242 143.296 351.353C143.117 351.463 142.968 351.385 142.968 351.177C142.968 350.714 143.335 350.701 144.03 351.141M147.307 352.227C147.5 352.227 147.553 352.396 147.425 352.602C147.264 352.861 147.056 352.862 146.746 352.605C146.499 352.401 146.193 352.339 146.063 352.468C145.933 352.598 145.828 352.499 145.828 352.249C145.828 351.981 146.06 351.882 146.394 352.01C146.704 352.13 147.115 352.227 147.307 352.227M150.523 353.3C150.715 353.3 150.769 353.469 150.641 353.673C150.481 353.934 150.272 353.935 149.963 353.677C149.716 353.473 149.408 353.411 149.278 353.541C149.15 353.671 149.044 353.571 149.044 353.321C149.044 353.053 149.277 352.955 149.609 353.082C149.92 353.202 150.332 353.3 150.523 353.3M252.138 353.663C252.015 353.862 251.775 353.94 251.606 353.836C251.436 353.731 251.195 353.811 251.07 354.015C250.945 354.217 250.703 354.297 250.533 354.192C250.364 354.089 250.123 354.168 249.997 354.371C249.872 354.574 249.589 354.629 249.367 354.492C249.132 354.346 249.475 354.059 250.196 353.798C251.738 353.241 252.428 353.193 252.138 353.663M156.518 355.295C156.893 355.668 156.154 355.857 155.72 355.497C155.451 355.274 155.143 355.182 155.032 355.292C154.923 355.401 154.713 355.297 154.565 355.057C154.314 354.652 156.09 354.866 156.518 355.295M168.341 358.303C168.341 358.499 168.1 358.66 167.805 358.66C167.511 358.66 167.27 358.499 167.27 358.303C167.27 358.106 167.511 357.945 167.805 357.945C168.1 357.945 168.341 358.106 168.341 358.303M170.128 358.66C170.128 358.856 169.897 359.018 169.613 359.018C169.33 359.018 168.998 358.856 168.877 358.66C168.756 358.463 168.987 358.303 169.391 358.303C169.797 358.303 170.128 358.463 170.128 358.66M171.915 359.018C171.915 359.214 171.593 359.374 171.2 359.374C170.807 359.374 170.485 359.214 170.485 359.018C170.485 358.821 170.807 358.66 171.2 358.66C171.593 358.66 171.915 358.821 171.915 359.018M231.236 359.018C230.543 359.464 230.164 359.464 230.164 359.018C230.164 358.821 230.526 358.662 230.968 358.665C231.619 358.67 231.67 358.737 231.236 359.018M174.059 359.374C174.059 359.571 173.747 359.732 173.365 359.732C172.985 359.732 172.572 359.571 172.451 359.374C172.325 359.171 172.626 359.018 173.144 359.018C173.647 359.018 174.059 359.178 174.059 359.374M191.212 360.065C191.212 360.249 191.574 360.47 192.017 360.557C192.459 360.644 192.15 360.676 191.332 360.628C190.228 360.564 189.942 360.647 190.224 360.949C190.464 361.207 191.508 361.306 193.052 361.219C194.695 361.126 195.5 361.212 195.5 361.479C195.5 362.02 189.429 362.001 185.603 361.447C182.388 360.983 181.66 360.447 184.244 360.447C185.128 360.447 185.852 360.567 185.852 360.715C185.851 361.185 189.377 360.757 189.81 360.235C190.28 359.668 191.212 359.556 191.212 360.065M181.921 360.447C181.921 360.871 181.3 360.871 180.312 360.447C179.715 360.189 179.787 360.135 180.759 360.114C181.398 360.101 181.921 360.25 181.921 360.447M221.766 360.447C220.79 360.866 220.515 360.866 220.515 360.447C220.515 360.25 220.957 360.101 221.498 360.114C222.369 360.136 222.4 360.174 221.766 360.447M219.265 360.804C219.143 361 218.49 361.162 217.814 361.162C217.137 361.162 216.585 361 216.585 360.804C216.585 360.607 217.237 360.447 218.036 360.447C218.911 360.447 219.398 360.588 219.265 360.804M215.333 361.162C215.47 361.382 214.862 361.519 213.747 361.519C212.753 361.519 211.939 361.358 211.939 361.162C211.939 360.965 212.652 360.804 213.526 360.804C214.398 360.804 215.212 360.965 215.333 361.162M209.408 361.29C208.999 361.645 206.221 361.848 206.221 361.523C206.221 361.324 206.972 361.162 207.89 361.162C208.805 361.162 209.49 361.219 209.408 361.29" fill="#4a4a4a" fill-rule="evenodd" opacity="1" stroke="none"/>
<path d="M147.614 84.0668C146.927 84.1463 144.756 84.3804 142.79 84.5877C126.168 86.3369 106.187 96.4091 95.8896 108.229C78.4871 128.204 73.6897 149.173 81.0316 173.163C85.3851 187.388 88.0573 188.196 101.251 179.281C104.443 177.124 108.743 173.978 110.806 172.29C112.871 170.603 116.147 168.239 118.086 167.039C120.026 165.836 123.725 163.299 126.306 161.4C147.492 145.803 146.891 146.068 159.087 146.912C169.073 147.603 179.329 143.487 192.491 133.506C201.69 126.532 204.963 126.534 217.478 133.524C232.653 141.999 233.433 132.357 219.111 113.342C206.707 96.8745 191.712 88.3882 168.52 84.7092C165.118 84.1696 150.588 83.7229 147.614 84.0668" fill="#ebebeb" fill-rule="evenodd" opacity="1" stroke="none"/>
</g>
</svg>
