<?xml version="1.0" encoding="UTF-8" standalone="no"?>
<!DOCTYPE svg PUBLIC "-//W3C//DTD SVG 1.1//EN" "http://www.w3.org/Graphics/SVG/1.1/DTD/svg11.dtd">
<!-- Created with Vectornator (http://vectornator.io/) -->
<svg height="100%" stroke-miterlimit="10" style="fill-rule:nonzero;clip-rule:evenodd;stroke-linecap:round;stroke-linejoin:round;" version="1.1" viewBox="0 0 803 804" width="100%" xml:space="preserve" xmlns="http://www.w3.org/2000/svg" xmlns:vectornator="http://vectornator.io" xmlns:xlink="http://www.w3.org/1999/xlink">
<defs/>
<g id="Untitled" vectornator:layerName="Untitled">
<path d="M483.129 377.684C480.826 377.716 478.565 377.716 476.261 377.684L476.261 360.46C476.261 357.911 477.008 355.416 478.437 353.325C478.938 352.579 479.183 352.237 479.685 351.502C480.197 352.248 480.431 352.589 480.964 353.325C482.394 355.416 483.14 357.911 483.14 360.46L483.14 377.684L483.129 377.684ZM495.458 338.373C496.973 336.155 498.53 333.979 500.14 331.846L500.14 316.947C497.815 316.062 495.48 315.304 493.08 314.654C492.269 316.2 491.47 317.779 490.68 319.346C489.07 319.069 487.438 318.824 485.806 318.664C485.017 316.808 484.196 314.974 483.364 313.129C480.9 313.001 478.48 313.001 476.016 313.129C475.205 314.963 474.395 316.808 473.574 318.664C471.963 318.813 470.331 319.058 468.721 319.346C467.932 317.779 467.132 316.2 466.321 314.654C463.922 315.294 461.586 316.051 459.261 316.947L459.261 331.835L463.943 338.373C463.943 338.373 457.651 393.661 454.696 416.644C470.683 424.483 488.718 424.483 504.705 416.644C501.452 391.421 495.458 338.373 495.469 338.373M440.128 466.748L445.812 463.815L445.812 422.392L440.928 419.267L440.928 461.256L433.206 457.47C428.354 455.081 423.928 453.929 419.704 453.929C415.481 453.929 411.034 455.091 406.17 457.47L402.214 459.421L398.236 457.47C393.372 455.081 388.957 453.929 384.723 453.929C380.489 453.929 376.074 455.091 371.21 457.47L363.489 461.256L363.489 418.841L358.775 422.328L358.775 463.805L364.449 466.738M434.603 411.887C428.791 408.816 423.714 407.408 418.563 407.408C414.318 407.408 410.138 408.368 405.498 410.458L405.498 451.412C410.138 449.215 414.436 448.159 418.585 448.159C422.733 448.159 427.426 449.311 432.332 451.721L435.947 453.481L435.947 412.602L434.603 411.898L434.603 411.887ZM398.918 410.447C394.3 408.389 390.077 407.397 385.853 407.397C380.702 407.397 375.636 408.816 369.824 411.887L368.48 412.58L368.48 453.46L372.095 451.7C377.001 449.3 381.502 448.138 385.864 448.138C390.226 448.138 394.311 449.172 398.929 451.38L398.929 410.447M328.358 377.674C326.054 377.706 323.793 377.706 321.49 377.674L321.49 360.45C321.49 357.901 322.236 355.405 323.665 353.315C324.167 352.568 324.412 352.227 324.913 351.491C325.425 352.237 325.66 352.579 326.193 353.315C327.622 355.405 328.369 357.901 328.369 360.45L328.369 377.674L328.358 377.674ZM340.687 338.362C342.201 336.144 343.758 333.968 345.369 331.835L345.369 316.936C343.044 316.051 340.708 315.294 338.309 314.643C337.498 316.19 336.698 317.768 335.909 319.336C334.298 319.058 332.667 318.813 331.035 318.653C330.246 316.797 329.425 314.963 328.593 313.118C326.129 312.99 323.708 312.99 321.244 313.118C320.434 314.952 319.623 316.797 318.802 318.653C317.192 318.802 315.56 319.048 313.95 319.336C313.16 317.768 312.36 316.19 311.55 314.643C309.15 315.283 306.815 316.04 304.49 316.936L304.49 331.825C304.49 331.825 307.934 336.57 309.172 338.362C309.172 338.362 302.879 393.65 299.936 416.633C315.923 424.472 333.957 424.472 349.944 416.633C346.691 391.41 340.698 338.362 340.708 338.362M405.722 346.724C403.44 346.756 401.136 346.756 398.886 346.724L398.886 329.5C398.886 326.951 399.633 324.444 401.062 322.375C401.542 321.629 401.808 321.266 402.31 320.52C402.79 321.266 403.056 321.629 403.589 322.375C404.997 324.444 405.733 326.961 405.733 329.5L405.733 346.724L405.722 346.724ZM386.312 311.689L386.355 311.689C383.454 336.357 380.478 361.025 377.3 385.683C380.478 387.251 387.091 391.25 387.091 391.25L390.482 386.974L390.482 383.166C390.482 374.613 394.993 366.678 402.31 362.263C405.989 364.481 408.933 367.542 410.98 371.179C413.007 374.773 414.148 378.879 414.148 383.166L414.148 386.974L417.539 391.25C417.539 391.25 424.141 387.251 427.33 385.683C424.077 360.62 421.059 335.504 418.126 310.42L418.062 307.402L422.669 300.992C422.669 300.992 422.733 300.906 422.765 300.864L422.755 298.379C422.755 298.379 422.765 298.379 422.776 298.379L422.776 285.975C420.451 285.069 418.094 284.333 415.694 283.682C414.884 285.239 414.084 286.807 413.295 288.386C411.684 288.087 410.074 287.852 408.453 287.682C407.631 285.847 406.821 284.002 406.01 282.157C403.547 282.019 401.126 282.019 398.662 282.157C397.841 284.013 397.03 285.847 396.22 287.682C394.599 287.852 392.967 288.087 391.357 288.386C390.578 286.818 389.767 285.239 388.957 283.682C386.547 284.333 384.222 285.069 381.897 285.975L381.897 300.853L386.589 307.38L386.344 311.678L386.312 311.689ZM455.848 350.712L453.63 352.685L450.74 350.424L449.129 343.748L445.098 340.719L443.487 344.985L439.467 341.956L437.856 335.269L433.836 332.24L432.225 336.485L426.327 331.558L432.993 385.683L450.942 401.691C453.033 385.011 455.059 368.31 457.032 351.608L455.848 350.712ZM371.616 385.683L378.313 331.558L372.405 336.485L370.794 332.24L366.774 335.269L365.163 341.956L361.142 344.985L359.532 340.73L355.501 343.759L353.89 350.446L351.021 352.696L348.782 350.723L347.64 351.587C349.603 368.288 351.64 384.979 353.73 401.659L371.594 385.683L371.616 385.683ZM401.862 732.97C219.35 732.97 70.8711 584.491 70.8711 401.979C70.8711 219.468 219.297 70.9996 401.808 70.9996C584.32 70.9996 732.799 219.479 732.799 401.99C732.799 584.501 584.32 732.98 401.808 732.98L401.862 732.97ZM401.862 83.6484C226.336 83.6484 83.5307 226.454 83.5307 401.979C83.5307 577.505 226.336 720.31 401.862 720.31C577.387 720.31 720.193 577.505 720.193 401.979C720.193 226.454 577.334 83.6484 401.808 83.6484L401.862 83.6484ZM636.099 401.979C636.099 349.017 618.427 300.107 588.682 260.827L588.682 206.969L531.464 206.969C494.328 182.204 449.758 167.742 401.862 167.742C353.965 167.742 309.449 182.215 272.313 206.969L216.364 206.969L216.364 259.142C185.83 298.709 167.625 348.249 167.625 401.979C167.625 466.471 193.818 524.948 236.137 567.341C246.6 582.891 260.848 595.956 278.008 605.064L402.512 670.995L527.016 605.064C545.68 595.177 560.888 580.609 571.543 563.267C611.526 521.236 636.109 464.434 636.109 401.979L636.099 401.979ZM623.439 401.979C623.439 447.071 609.884 489.038 586.655 524.073C587.978 517.066 588.671 509.888 588.671 502.604L588.671 282.989C610.662 317.384 623.439 358.21 623.439 401.969L623.439 401.979ZM560.665 222.305C567.234 222.305 572.535 227.637 572.535 234.186C572.535 240.734 567.224 246.056 560.665 246.056C554.105 246.056 548.784 240.756 548.784 234.186C548.784 227.616 554.095 222.305 560.665 222.305ZM560.665 304.693C567.234 304.693 572.535 310.004 572.535 316.573C572.535 323.143 567.224 328.444 560.665 328.444C554.105 328.444 548.784 323.111 548.784 316.573C548.784 310.036 554.095 304.693 560.665 304.693ZM560.665 384.83C567.234 384.83 572.535 390.152 572.535 396.7C572.535 403.248 567.224 408.57 560.665 408.57C554.105 408.57 548.784 403.27 548.784 396.7C548.784 390.13 554.095 384.83 560.665 384.83ZM560.665 464.978C567.234 464.978 572.535 470.289 572.535 476.848C572.535 483.407 567.224 488.718 560.665 488.718C554.105 488.718 548.784 483.386 548.784 476.848C548.784 470.31 554.095 464.978 560.665 464.978ZM401.808 180.402C439.819 180.402 475.611 190.032 506.902 206.969L296.715 206.969C328.006 190.043 363.798 180.402 401.798 180.402L401.808 180.402ZM466.769 234.186C466.769 240.756 461.437 246.056 454.899 246.056C448.361 246.056 443.018 240.756 443.018 234.186C443.018 227.616 448.329 222.305 454.899 222.305C461.469 222.305 466.769 227.637 466.769 234.186ZM361.025 234.186C361.025 240.756 355.714 246.056 349.155 246.056C342.596 246.056 337.306 240.756 337.306 234.186C337.306 227.616 342.617 222.305 349.155 222.305C355.693 222.305 361.025 227.637 361.025 234.186ZM243.432 222.305C250.002 222.305 255.302 227.637 255.302 234.186C255.302 240.734 249.991 246.056 243.432 246.056C236.873 246.056 231.562 240.756 231.562 234.186C231.562 227.616 236.894 222.305 243.432 222.305ZM243.069 304.447C249.607 304.447 254.94 309.748 254.94 316.328C254.94 322.909 249.607 328.177 243.069 328.177C236.532 328.177 231.189 322.866 231.189 316.328C231.189 309.79 236.489 304.447 243.069 304.447ZM243.069 384.574C249.607 384.574 254.94 389.874 254.94 396.455C254.94 403.035 249.607 408.325 243.069 408.325C236.532 408.325 231.189 403.025 231.189 396.455C231.189 389.885 236.489 384.574 243.069 384.574ZM180.231 401.969C180.231 357.335 193.509 315.752 216.311 280.931L216.311 502.604C216.311 510.848 217.196 518.964 218.87 526.835C194.501 491.257 180.22 448.255 180.22 401.979L180.231 401.969ZM231.189 476.603C231.189 470.033 236.489 464.722 243.069 464.722C249.65 464.722 254.94 470.033 254.94 476.603C254.94 483.172 249.607 488.452 243.069 488.452C236.532 488.452 231.189 483.151 231.189 476.603ZM256.422 560.004C249.852 560.004 244.541 554.692 244.541 548.133C244.541 541.574 249.842 536.285 256.422 536.285C263.002 536.285 268.292 541.596 268.292 548.133C268.292 554.671 262.992 560.004 256.422 560.004ZM303.135 557.508C293.174 552.229 284.813 544.326 279 534.663C273.156 524.969 270.084 513.899 270.084 502.604L270.084 485.178L356.183 531.752L305.812 558.916L303.146 557.508L303.135 557.508ZM322.642 610.279C316.072 610.279 310.761 604.946 310.761 598.409C310.761 591.871 316.061 586.538 322.642 586.538C329.222 586.538 334.512 591.85 334.512 598.409C334.512 604.968 329.179 610.279 322.642 610.279ZM401.83 649.292C395.281 649.292 389.981 643.98 389.981 637.411C389.981 630.841 395.281 625.54 401.83 625.54C408.378 625.54 413.7 630.841 413.7 637.411C413.7 643.98 408.399 649.292 401.83 649.292ZM402.459 610.108L352.589 583.691L402.48 556.772L452.35 583.691L402.459 610.108ZM481.402 610.449C474.853 610.449 469.521 605.149 469.521 598.579C469.521 592.009 474.853 586.73 481.402 586.73C487.95 586.73 493.272 592.042 493.272 598.579C493.272 605.117 487.971 610.449 481.402 610.449ZM534.834 502.594C534.834 513.888 531.752 524.958 525.939 534.653C520.127 544.315 511.755 552.218 501.783 557.497L499.138 558.905L448.809 531.741L534.834 485.391L534.834 502.594ZM534.834 435.308L402.48 506.721L270.084 435.116L270.084 260.753L534.834 260.753L534.834 435.318L534.834 435.308ZM548.549 536.519C555.119 536.519 560.419 541.83 560.419 548.389C560.419 554.948 555.108 560.26 548.549 560.26C541.99 560.26 536.7 554.938 536.7 548.389C536.7 541.841 542.011 536.519 548.549 536.519Z" fill="#000000" fill-rule="evenodd" opacity="1" stroke="none"/>
</g>
</svg>
