<?xml version="1.0" encoding="UTF-8" standalone="no"?>
<!DOCTYPE svg PUBLIC "-//W3C//DTD SVG 1.1//EN" "http://www.w3.org/Graphics/SVG/1.1/DTD/svg11.dtd">
<!-- Created with Vectornator (http://vectornator.io/) -->
<svg height="100%" stroke-miterlimit="10" style="fill-rule:nonzero;clip-rule:evenodd;stroke-linecap:round;stroke-linejoin:round;" version="1.1" viewBox="0 0 1000 1000" width="100%" xml:space="preserve" xmlns="http://www.w3.org/2000/svg" xmlns:vectornator="http://vectornator.io" xmlns:xlink="http://www.w3.org/1999/xlink">
<defs/>
<g id="Layer-1" vectornator:layerName="Layer 1">
<g opacity="1">
<path d="M660.155 692.786C628.653 692.786 599.536 682.851 575.989 666.087L575.137 666.996L542.037 702.304C574.633 726.729 615.603 741.323 660.155 741.323C686.077 741.323 710.79 736.362 733.356 727.429L737.852 722.554C744.045 715.84 751.672 697.022 756.225 685.784L758.1 681.174C763.609 667.723 767.875 654.148 771.183 641.068C745.23 672.535 705.124 692.786 660.155 692.786" fill="#323232" fill-rule="evenodd" opacity="1" stroke="none"/>
<path d="M660.155 632.408C703.553 632.408 738.866 598.51 738.866 556.847C738.866 515.178 703.553 481.281 660.155 481.281C616.757 481.281 581.446 515.178 581.446 556.847C581.446 598.51 616.757 632.408 660.155 632.408" fill="#323232" fill-rule="evenodd" opacity="1" stroke="none"/>
<path d="M274.027 692.786C195.947 692.786 132.422 631.801 132.422 556.842C132.422 492.495 179.251 438.486 241.9 424.478C239.082 423.573 236.227 422.609 233.364 421.561C213.261 414.248 196.567 405.068 183.3 394.207C122.93 425.314 81.8693 486.471 81.8693 556.842C81.8693 658.727 167.896 741.323 274.027 741.323C317.875 741.323 358.269 727.194 390.611 703.46L356.593 667.181C333.336 683.27 304.824 692.786 274.027 692.786" fill="#323232" fill-rule="evenodd" opacity="1" stroke="none"/>
<path d="M195.316 556.845C195.316 598.507 230.628 632.406 274.027 632.406C317.431 632.406 352.742 598.507 352.742 556.845C352.742 515.175 317.431 481.283 274.027 481.283C230.628 481.283 195.316 515.175 195.316 556.845" fill="#323232" fill-rule="evenodd" opacity="1" stroke="none"/>
<path d="M313.457 346.005C272.837 338.701 190.272 311.67 175.704 258.265C175.704 258.265 156.358 315.74 189.146 359.129C195.908 368.086 204.963 375.411 214.725 381.366C243.509 398.924 278.459 404.532 279.145 404.554C358.579 407.377 422.072 470.083 422.072 547.029C422.072 583.439 407.825 616.637 384.43 641.839C382.458 643.958 380.442 646.048 378.34 648.052L378.634 648.364L412.588 684.589L464.593 740.054L464.593 425.187C456.577 409.339 424.98 366.052 313.457 346.005M793.814 366.203C790.599 330.837 780.277 292.37 755.859 258.269C741.291 311.673 658.725 338.699 618.105 346.002C500.089 367.224 471.567 414.475 465.777 427.681C465.463 426.955 465.061 426.108 464.593 425.184L464.593 740.055L465.777 741.325L520.244 683.226L553.215 648.057C526.208 622.234 509.488 586.511 509.488 547.032C509.488 502.701 530.572 463.097 563.626 436.945C589.936 415.335 624.08 402.253 661.419 402.253C744.569 402.253 811.973 466.964 811.973 546.786C812.89 678.228 760.84 741.735 760.84 741.735C852.147 721.317 920.167 642.701 920.167 548.832C920.167 466.663 868.047 396.192 793.814 366.203" fill="#000000" fill-rule="evenodd" opacity="1" stroke="none"/>
</g>
</g>
</svg>
