<?xml version="1.0" encoding="UTF-8" standalone="no"?>
<!DOCTYPE svg PUBLIC "-//W3C//DTD SVG 1.1//EN" "http://www.w3.org/Graphics/SVG/1.1/DTD/svg11.dtd">
<!-- Created with Vectornator (http://vectornator.io/) -->
<svg height="100%" stroke-miterlimit="10" style="fill-rule:nonzero;clip-rule:evenodd;stroke-linecap:round;stroke-linejoin:round;" version="1.1" viewBox="0 0 3024 1200" width="100%" xml:space="preserve" xmlns="http://www.w3.org/2000/svg" xmlns:xlink="http://www.w3.org/1999/xlink">
<defs/>
<g id="Layer-1">
<g opacity="1">
<path d="M1004.77 600C1004.77 857.452 796.063 1066.18 538.585 1066.18C281.106 1066.18 72.4029 857.452 72.4029 600C72.4029 342.548 281.106 133.819 538.585 133.819C796.063 133.819 1004.77 342.522 1004.77 600Z" fill="#00c896" fill-rule="evenodd" opacity="1" stroke="none"/>
<path d="M794.558 403.16L794.558 340.341L727.871 340.341C674.501 302.65 609.165 280.482 538.559 280.482C467.953 280.482 402.616 302.676 349.246 340.341L282.56 340.341L282.56 403.16C238.691 458.061 212.499 527.421 212.499 602.829C212.499 712.814 268.231 809.923 353.27 868.095C353.27 868.095 353.296 868.069 353.322 868.043C358.643 871.677 364.224 875.078 370.065 878.115L538.559 966.347L707.027 878.115C713.179 874.896 719.071 871.288 724.678 867.394C724.678 867.394 724.704 867.42 724.73 867.446C809.25 809.196 864.567 712.399 864.567 602.829C864.567 527.421 838.375 458.087 794.506 403.16" fill="#ffffff" fill-rule="evenodd" opacity="1" stroke="none"/>
<path d="M655.344 565.112C652.022 565.164 648.803 565.164 645.48 565.112L645.48 540.374C645.48 536.714 646.545 533.132 648.595 530.121C649.322 529.057 649.659 528.563 650.386 527.499C651.113 528.563 651.451 529.057 652.229 530.121C654.28 533.132 655.344 536.714 655.344 540.374L655.344 565.112ZM673.048 508.654C675.228 505.487 677.461 502.346 679.771 499.283L679.771 477.893C676.422 476.621 673.074 475.531 669.621 474.597C668.453 476.829 667.311 479.087 666.169 481.346C663.859 480.93 661.522 480.593 659.186 480.385C658.044 477.711 656.876 475.09 655.682 472.442C652.151 472.26 648.673 472.26 645.143 472.442C643.975 475.09 642.807 477.711 641.638 480.385C639.328 480.593 636.992 480.956 634.682 481.346C633.54 479.087 632.397 476.829 631.229 474.597C627.777 475.531 624.428 476.595 621.08 477.893L621.08 499.283L627.803 508.679C627.803 508.679 618.769 588.059 614.538 621.052C637.485 632.318 663.391 632.318 686.338 621.052C681.666 584.841 673.074 508.679 673.074 508.679" fill="#003c3c" fill-rule="evenodd" opacity="1" stroke="none"/>
<path d="M593.59 692.982L601.741 688.777L601.741 629.307L594.732 624.816L594.732 685.117L583.648 679.691C576.691 676.265 570.332 674.604 564.257 674.604C558.183 674.604 551.797 676.265 544.815 679.691L539.13 682.495L533.419 679.691C526.436 676.265 520.103 674.604 514.002 674.604C507.902 674.604 501.595 676.265 494.586 679.691L483.502 685.117L483.502 624.219L476.727 629.229L476.727 688.803L484.878 693.008" fill="#003c3c" fill-rule="evenodd" opacity="1" stroke="none"/>
<path d="M587.568 615.237L587.568 673.929L582.376 671.411C575.341 667.958 568.852 666.297 562.648 666.297C556.444 666.297 550.526 667.829 543.854 670.969L543.854 612.174C550.526 609.189 556.522 607.787 562.596 607.787C569.994 607.787 577.288 609.812 585.621 614.225L587.542 615.237L587.568 615.237Z" fill="#003c3c" fill-rule="evenodd" opacity="1" stroke="none"/>
<path d="M534.38 612.148L534.38 670.918C527.76 667.751 521.582 666.271 515.612 666.271C509.356 666.271 502.892 667.932 495.858 671.385L490.666 673.903L490.666 615.211L492.587 614.199C500.946 609.786 508.214 607.762 515.612 607.762C521.686 607.762 527.734 609.163 534.38 612.148Z" fill="#003c3c" fill-rule="evenodd" opacity="1" stroke="none"/>
<path d="M433.065 565.112C429.743 565.164 426.524 565.164 423.201 565.112L423.201 540.374C423.201 536.714 424.265 533.132 426.316 530.121C427.043 529.057 427.38 528.563 428.107 527.499C428.834 528.563 429.171 529.057 429.95 530.121C432.001 533.132 433.065 536.714 433.065 540.374L433.065 565.112ZM450.769 508.654C452.949 505.487 455.181 502.346 457.492 499.283L457.492 477.893C454.143 476.621 450.795 475.531 447.342 474.597C446.174 476.829 445.032 479.087 443.89 481.346C441.579 480.93 439.243 480.593 436.907 480.385C435.765 477.711 434.597 475.09 433.403 472.442C429.872 472.26 426.394 472.26 422.864 472.442C421.696 475.09 420.527 477.711 419.359 480.385C417.049 480.593 414.713 480.956 412.403 481.346C411.26 479.087 410.118 476.829 408.95 474.597C405.498 475.531 402.149 476.595 398.8 477.893L398.8 499.283C398.8 499.283 403.758 506.084 405.524 508.679C405.524 508.679 396.49 588.059 392.259 621.052C415.206 632.318 441.112 632.318 464.059 621.052C459.387 584.841 450.795 508.679 450.795 508.679" fill="#003c3c" fill-rule="evenodd" opacity="1" stroke="none"/>
<path d="M544.114 520.646C540.843 520.698 537.546 520.698 534.302 520.646L534.302 495.908C534.302 492.248 535.366 488.64 537.417 485.681C538.092 484.616 538.481 484.071 539.208 483.007C539.883 484.071 540.272 484.616 541.051 485.681C543.076 488.64 544.14 492.248 544.14 495.908L544.14 520.646L544.114 520.646ZM516.235 470.339L516.287 470.339C512.133 505.772 507.85 541.179 503.282 576.586C507.85 578.844 517.325 584.581 517.325 584.581L522.179 578.429L522.179 572.978C522.179 560.699 528.643 549.304 539.156 542.97C544.425 546.137 548.682 550.55 551.616 555.767C554.523 560.933 556.158 566.826 556.158 572.978L556.158 578.429L561.013 584.581C561.013 584.581 570.487 578.844 575.056 576.586C570.383 540.582 566.048 504.552 561.843 468.522L561.765 464.187L568.385 454.998C568.385 454.998 568.463 454.868 568.514 454.816L568.514 451.234C568.514 451.234 568.514 451.234 568.54 451.234L568.54 433.427C565.192 432.129 561.817 431.065 558.365 430.13C557.197 432.363 556.055 434.621 554.912 436.879C552.602 436.438 550.292 436.127 547.956 435.867C546.788 433.219 545.619 430.598 544.451 427.924C540.921 427.742 537.443 427.742 533.912 427.924C532.744 430.572 531.576 433.219 530.408 435.867C528.072 436.101 525.736 436.438 523.425 436.879C522.309 434.621 521.141 432.363 519.973 430.13C516.52 431.065 513.172 432.129 509.823 433.427L509.823 454.79L516.572 464.161L516.209 470.339L516.235 470.339Z" fill="#003c3c" fill-rule="evenodd" opacity="1" stroke="none"/>
<path d="M616.096 526.383L612.903 529.212L608.75 525.968L606.439 516.363L600.651 512.002L598.34 518.128L592.578 513.793L590.267 504.189L584.505 499.854L582.194 505.954L573.706 498.893L583.259 576.612L609.035 599.611C612.046 575.651 614.954 551.692 617.783 527.707L616.07 526.409L616.096 526.383Z" fill="#003c3c" fill-rule="evenodd" opacity="1" stroke="none"/>
<path d="M495.131 576.586L504.761 498.867L496.273 505.928L493.963 499.828L488.2 504.163L485.89 513.767L480.127 518.102L477.817 512.002L472.028 516.337L469.718 525.942L465.591 529.186L462.372 526.357L460.736 527.603C463.566 551.588 466.473 575.548 469.484 599.507L495.131 576.586Z" fill="#003c3c" fill-rule="evenodd" opacity="1" stroke="none"/>
<path d="M806.836 744.483L806.836 319.99L272.229 319.99L272.229 744.483C272.229 806.133 306.286 862.722 360.746 891.587L539.519 986.256L718.293 891.587C772.779 862.696 806.836 806.133 806.836 744.483ZM635.824 882.294C635.824 872.897 643.481 865.266 652.878 865.266C662.275 865.266 669.933 872.872 669.933 882.294C669.933 891.717 662.327 899.349 652.878 899.349C643.43 899.349 635.824 891.743 635.824 882.294ZM521.608 938.052C521.608 928.629 529.214 920.998 538.637 920.998C548.059 920.998 555.691 928.603 555.691 938.052C555.691 947.501 548.085 955.107 538.637 955.107C529.188 955.107 521.608 947.475 521.608 938.052ZM467.927 860.931L539.571 822.279L611.164 860.931L539.519 898.856L467.927 860.931ZM407.886 882.061C407.886 872.638 415.492 865.006 424.94 865.006C434.389 865.006 441.995 872.612 441.995 882.061C441.995 891.509 434.337 899.115 424.94 899.115C415.543 899.115 407.886 891.457 407.886 882.061ZM349.48 719.459L473.093 786.327L400.747 825.316L396.932 823.292C382.629 815.712 370.636 804.368 362.277 790.481C353.893 776.567 349.48 760.655 349.48 744.457L349.48 719.433L349.48 719.459ZM293.644 707.155C293.644 697.732 301.25 690.101 310.699 690.101C320.147 690.101 327.753 697.706 327.753 707.155C327.753 716.604 320.096 724.158 310.699 724.158C301.302 724.158 293.644 716.552 293.644 707.155ZM293.644 592.057C293.644 582.634 301.25 575.002 310.699 575.002C320.147 575.002 327.753 582.608 327.753 592.057C327.753 601.506 320.096 609.111 310.699 609.111C301.302 609.111 293.644 601.506 293.644 592.057ZM293.644 477.011C293.644 467.588 301.25 459.956 310.699 459.956C320.147 459.956 327.753 467.562 327.753 477.011C327.753 486.459 320.096 494.013 310.699 494.013C301.302 494.013 293.644 486.407 293.644 477.011ZM328.272 359.057C328.272 368.48 320.667 376.112 311.218 376.112C301.769 376.112 294.163 368.506 294.163 359.057C294.163 349.608 301.821 342.003 311.218 342.003C320.615 342.003 328.272 349.66 328.272 359.057ZM346.936 809.871C346.936 819.294 339.33 826.926 329.882 826.926C320.433 826.926 312.827 819.32 312.827 809.871C312.827 800.422 320.433 792.869 329.882 792.869C339.33 792.869 346.936 800.474 346.936 809.871ZM480.075 359.057C480.075 368.48 472.47 376.112 463.021 376.112C453.572 376.112 445.992 368.506 445.992 359.057C445.992 349.608 453.624 342.003 463.021 342.003C472.418 342.003 480.075 349.66 480.075 359.057ZM631.904 359.057C631.904 368.48 624.247 376.112 614.85 376.112C605.453 376.112 597.795 368.506 597.795 359.057C597.795 349.608 605.401 342.003 614.85 342.003C624.298 342.003 631.904 349.66 631.904 359.057ZM729.636 647.867L539.597 750.401L349.48 647.581L349.48 397.215L729.636 397.215L729.636 647.867ZM729.636 744.483C729.636 760.707 725.224 776.593 716.865 790.506C708.506 804.394 696.514 815.738 682.185 823.318L678.395 825.342L606.128 786.353L729.636 719.797L729.636 744.509L729.636 744.483ZM749.339 793.206C758.761 793.206 766.393 800.812 766.393 810.261C766.393 819.709 758.787 827.315 749.339 827.315C739.89 827.315 732.31 819.657 732.31 810.261C732.31 800.864 739.916 793.206 749.339 793.206ZM783.707 359.057C783.707 368.48 776.101 376.112 766.653 376.112C757.204 376.112 749.598 368.506 749.598 359.057C749.598 349.608 757.23 342.003 766.653 342.003C776.075 342.003 783.707 349.66 783.707 359.057ZM783.707 477.348C783.707 486.745 776.101 494.402 766.653 494.402C757.204 494.402 749.598 486.745 749.598 477.348C749.598 467.951 757.23 460.294 766.653 460.294C776.075 460.294 783.707 467.925 783.707 477.348ZM783.707 592.394C783.707 601.817 776.101 609.449 766.653 609.449C757.204 609.449 749.598 601.843 749.598 592.394C749.598 582.946 757.23 575.34 766.653 575.34C776.075 575.34 783.707 582.997 783.707 592.394ZM783.707 707.493C783.707 716.889 776.101 724.547 766.653 724.547C757.204 724.547 749.598 716.889 749.598 707.493C749.598 698.096 757.23 690.438 766.653 690.438C776.075 690.438 783.707 698.07 783.707 707.493Z" fill="#003c3c" fill-rule="evenodd" opacity="1" stroke="none"/>
<path d="M1650.89 322.041C1650.89 308.543 1661.84 297.588 1675.34 297.588C1688.84 297.588 1699.79 308.543 1699.79 322.041C1699.79 335.539 1688.84 346.493 1675.34 346.493C1661.84 346.493 1650.89 335.539 1650.89 322.041ZM1120.46 326.661L1120.46 478.464C1120.46 553.301 1162.38 594.263 1236.83 594.263C1311.28 594.263 1354.53 553.457 1354.53 476.751L1354.53 326.869C1354.53 311.346 1362.13 296.835 1374.88 287.984L1385.7 280.482L1295.99 280.482L1308.29 288.191C1322.08 296.835 1330.46 311.995 1330.46 328.271L1330.46 468.678C1330.46 501.204 1330.46 571.706 1247.73 571.706C1171.96 571.706 1162.38 515.117 1162.38 468.678L1162.38 326.609C1162.38 311.242 1169.83 296.835 1182.4 287.958L1192.99 280.482L1089.78 280.482L1100.4 287.958C1112.99 296.809 1120.46 311.242 1120.46 326.635L1120.46 326.661ZM1657.27 437.632L1657.27 546.059C1657.27 559.947 1651.17 573.133 1640.58 582.141L1633.37 588.267L1719.86 588.267L1711.92 582.167C1700.24 573.211 1693.38 559.324 1693.38 544.631L1693.38 370.556L1633.19 394.256L1642.87 403.627C1652.08 412.531 1657.3 424.809 1657.3 437.658L1657.27 437.632ZM2403.65 575.444C2381.45 575.444 2355.78 552.003 2347.76 533.729L2321.26 564.801C2334.52 581.622 2372.32 594.834 2397.7 594.834C2448.81 594.834 2484.2 569.863 2484.2 529.342C2484.2 495.856 2465.09 481.268 2433.08 468.392L2411.12 459.489C2385.19 449.08 2366.66 438.489 2366.66 418.423C2366.66 398.358 2381.71 388.883 2402.53 388.987C2437.42 389.168 2454.92 425.614 2454.92 425.614C2462.47 411.129 2465.95 404.821 2474.77 388.442C2458.76 380.057 2433.89 369.57 2407.85 369.57C2360.97 369.57 2330.63 392.673 2330.63 430.13C2330.63 467.588 2359.21 481.242 2386.28 492.222L2409 501.489C2430.2 510.185 2445.44 518.699 2445.44 539.544C2445.44 563.97 2428.88 575.418 2403.7 575.418L2403.65 575.444ZM1759.24 429.637L1820.16 588.267C1820.5 588.319 1848.22 588.319 1848.56 588.267L1912 429.196C1916.21 418.657 1921.92 408.819 1928.85 399.993C1935.81 391.141 1944.01 383.328 1953.3 376.76L1884.07 376.76L1884.2 376.916C1893.49 389.324 1895.83 405.652 1890.33 420.162L1849.86 527.343C1847.24 534.118 1845.16 540.686 1843.08 547.253C1841.21 540.686 1839.14 534.092 1836.52 527.343L1795.19 420.318C1793.17 415.023 1792.13 409.468 1792.13 403.964C1792.13 394.282 1795.22 384.73 1801.19 376.76L1717.89 376.76C1736.63 389.869 1751.04 408.274 1759.24 429.637ZM2545.25 346.493C2558.75 346.493 2569.68 335.539 2569.68 322.041C2569.68 308.543 2558.75 297.588 2545.25 297.588C2531.75 297.588 2520.8 308.543 2520.8 322.041C2520.8 335.539 2531.72 346.493 2545.25 346.493ZM1943.2 450.196C1956.16 404.328 2000.78 370.946 2047.66 370.946C2094.54 370.946 2135.84 404.328 2148.82 450.196C2150.69 456.763 2151.98 463.59 2152.68 470.599L1987.36 470.599C1987.36 470.884 1987.31 471.17 1987.31 471.482L1987.25 472.364C1987.2 473.117 1987.15 473.896 1987.12 474.648C1987.1 475.479 1987.05 476.31 1987.05 477.14C1987.05 477.919 1987.05 478.698 1987.05 479.477C1987.05 480.255 1987.05 481.034 1987.05 481.813C1987.05 482.566 1987.07 483.344 1987.12 484.097C1989.05 529.706 2017.39 566.41 2055 569.473C2056.69 569.629 2058.38 569.681 2060.12 569.681C2092.07 569.681 2119.33 545.462 2130.02 511.405L2149.93 511.405C2138.17 559.298 2097.6 594.601 2049.37 594.601C1991.93 594.601 1938.76 544.528 1938.76 482.773C1938.76 478.672 1938.97 474.597 1939.39 470.599C1940.09 463.59 1941.39 456.763 1943.26 450.196L1943.2 450.196ZM1990.52 450.196L2103.94 450.196C2095.6 416.606 2078.31 391.972 2051.66 389.506C2050.18 389.35 2048.7 389.298 2047.22 389.298C2018.64 389.298 1999.3 414.763 1990.52 450.196ZM2170.44 582.141L2163.22 588.267L2252.39 588.267L2243.51 582.089C2230.82 573.237 2223.24 558.753 2223.24 543.256L2223.24 440.747C2261.22 404.613 2307.27 417.463 2307.27 417.463L2307.27 368.765C2244.34 368.765 2220.8 418.683 2220.8 418.683L2216.46 370.556L2165.2 394.256L2175.03 405.211C2182.82 413.881 2187.13 425.146 2187.13 436.827L2187.13 546.085C2187.13 559.973 2181.03 573.159 2170.44 582.167L2170.44 582.141ZM1964.49 906.098L1919.63 841.592L1964 786.639C1975.55 772.31 1988.76 759.409 2003.3 748.143L2008.9 743.73L1932.53 743.652C1945.7 754.892 1947.88 774.412 1937.52 788.3C1927.6 801.591 1917.63 814.829 1907.77 828.068L1879.92 786.898C1870.86 773.478 1872.91 755.463 1884.77 744.457L1885.63 743.678L1791.17 743.678L1792.7 744.768C1810.35 757.228 1825.66 772.725 1837.92 790.558L1883.14 856.31L1838.8 912.717C1826.91 927.825 1813.23 941.427 1798.07 953.238L1795.53 955.211L1871.71 955.211L1871.51 955.055C1857.2 944.178 1854.27 923.853 1864.97 909.395C1874.83 896.078 1884.72 882.71 1894.61 869.289L1925.01 913.133C1933.99 926.086 1932.48 943.607 1921.42 954.847L1921.06 955.211L2015.13 955.211L2014.74 954.951C1994.99 942.076 1977.91 925.514 1964.44 906.15L1964.49 906.098ZM2563.32 544.631L2563.32 370.556L2503.12 394.256L2512.8 403.627C2522.02 412.531 2527.23 424.809 2527.23 437.658L2527.23 546.085C2527.23 559.973 2521.13 573.159 2510.54 582.167L2503.33 588.293L2589.82 588.293L2581.88 582.193C2570.19 573.237 2563.34 559.35 2563.34 544.657L2563.32 544.631ZM2412.4 843.773C2412.4 844.551 2412.4 845.33 2412.4 846.109C2412.4 846.887 2412.4 847.666 2412.4 848.445C2412.4 849.198 2412.42 849.976 2412.47 850.729C2414.39 896.338 2442.71 933.042 2480.35 936.105C2482.04 936.261 2483.73 936.313 2485.47 936.313C2517.42 936.313 2544.68 912.094 2555.37 878.063L2575.28 878.063C2563.52 925.956 2522.95 961.259 2474.72 961.259C2417.28 961.259 2364.11 911.186 2364.11 849.431C2364.11 845.33 2364.32 841.255 2364.74 837.257C2365.44 830.248 2366.74 823.421 2368.6 816.854C2381.56 770.986 2426.18 737.604 2473.06 737.604C2519.94 737.604 2561.24 770.986 2574.22 816.854C2576.09 823.421 2577.39 830.248 2578.09 837.257L2412.76 837.257C2412.76 837.543 2412.71 837.828 2412.68 838.14L2412.63 839.022C2412.58 839.775 2412.53 840.554 2412.5 841.306C2412.47 842.137 2412.42 842.968 2412.42 843.798L2412.4 843.773ZM2415.9 816.802L2529.31 816.802C2520.98 783.212 2503.69 758.578 2477.03 756.112C2475.55 755.956 2474.07 755.904 2472.59 755.904C2444.01 755.904 2424.67 781.369 2415.9 816.802ZM2881.9 376.76L2882.13 376.968C2895.55 389.272 2900.36 408.403 2894.31 425.562C2882.34 459.489 2852.39 545.592 2849.56 555.534C2846.93 545.955 2803.82 427.716 2803.82 427.716C2797.09 409.494 2802.7 388.987 2817.78 376.734L2737.39 376.449L2737.31 376.397L2672.44 376.397L2672.44 300.755L2635.58 333.307L2635.58 376.397L2599.86 376.397L2599.86 398.721L2635.58 398.721L2635.58 545.566C2635.58 568.513 2647.24 592.187 2685.97 592.187C2703.65 592.187 2723.58 585.801 2739.94 572.64L2736.17 562.127C2689.91 572.848 2672.44 565.138 2672.44 534.118L2672.44 398.747L2752.52 398.747L2823.91 588.267L2837.49 588.267C2837.49 588.267 2809.14 650.93 2763.48 650.93L2781.03 681.846C2823.1 669.801 2850.75 607.139 2874.92 542.762L2923.54 412.998C2927.43 402.641 2933.69 393.322 2941.81 385.794L2951.6 376.734L2881.9 376.734L2881.9 376.76ZM2298.54 901.763L2298.54 766.781L2352.8 766.781L2352.8 743.99L2298.54 743.99L2298.54 668.426L2261.68 700.977L2261.68 743.99L2225.96 743.99L2225.96 766.781L2261.68 766.781L2261.68 913.236C2261.68 936.157 2273.34 959.857 2312.07 959.857C2329.75 959.857 2349.68 953.471 2366.03 940.311L2362.27 929.798C2316.01 940.518 2298.54 932.809 2298.54 901.789L2298.54 901.763ZM1300.87 819.034C1300.87 892.548 1241.84 958.923 1166.67 958.923C1115.37 958.923 1088.2 932.238 1088.2 877.336C1088.2 803.823 1147.22 737.448 1222.4 737.448C1273.69 737.448 1300.87 764.159 1300.87 819.034ZM1258.43 797.982C1258.43 769.792 1249.81 753.983 1221.96 754.165C1169.13 754.554 1130.66 830.871 1130.66 898.362C1130.66 926.553 1139.28 942.361 1167.13 942.18C1219.98 941.79 1258.43 865.473 1258.43 797.982ZM2651.57 784.484L2647.24 736.358L2595.97 760.058L2605.81 771.012C2613.6 779.708 2617.91 790.948 2617.91 802.629L2617.91 911.886C2617.91 925.774 2611.81 938.961 2601.21 947.968L2594 954.094L2683.16 954.094L2674.29 947.916C2661.59 939.065 2654.01 924.554 2654.01 909.083L2654.01 806.575C2691.99 770.415 2738.04 783.29 2738.04 783.29L2738.04 734.593C2675.12 734.593 2651.57 784.51 2651.57 784.51L2651.57 784.484ZM1357.9 717.746C1356.21 726.208 1354.71 734.671 1353.02 743.289L1312.73 743.289L1312.73 763.899L1312.5 764.86L1349.02 764.86L1314.94 944.853C1308.68 977.768 1301.13 1006.17 1264.22 1048.01L1271.98 1054.45C1317.22 1027.76 1341.44 998.794 1349.57 956.586L1386.48 764.86L1450.21 764.393L1450.21 743.289L1390.63 743.289C1402.37 682.521 1405.4 633.901 1437.95 633.901C1448.62 633.901 1468.2 640.235 1483.12 650.956L1497.66 623.959C1490.78 617.054 1471.47 611.733 1458.95 611.733C1408.8 611.733 1369.81 654.901 1357.87 717.72L1357.9 717.746ZM1531.56 582.167L1524.19 588.293L1609.56 588.293L1602.11 582.193C1591.13 573.211 1584.77 559.765 1584.77 545.592L1584.77 441.474C1584.77 399.915 1569.74 370.582 1521.23 370.582C1495.84 370.582 1471.03 381.848 1453.53 403.29C1451.92 391.92 1449.22 370.582 1449.22 370.582L1393.9 394.282L1404.26 404.691C1413.09 413.569 1418.02 425.562 1418.02 438.047L1418.02 546.085C1418.02 559.973 1411.92 573.159 1401.33 582.167L1394.11 588.293L1480.6 588.293L1472.82 582.374C1461.03 573.419 1454.13 559.479 1454.13 544.683L1454.13 431.584C1459.99 419.825 1480.53 399.863 1504.87 399.863C1539.53 399.863 1548.69 416.97 1548.69 448.171L1548.69 545.722C1548.69 559.817 1542.41 573.159 1531.59 582.141L1531.56 582.167ZM2053.97 843.773C2053.97 844.551 2053.97 845.33 2053.97 846.109C2053.97 846.887 2053.97 847.666 2053.97 848.445C2053.97 849.198 2053.99 849.976 2054.04 850.729C2055.97 896.338 2084.31 933.042 2121.92 936.105C2123.61 936.261 2125.3 936.313 2127.04 936.313C2158.99 936.313 2186.25 912.094 2196.94 878.063L2216.85 878.063C2205.09 925.956 2164.55 961.259 2116.29 961.259C2058.85 961.259 2005.68 911.186 2005.68 849.431C2005.68 845.33 2005.89 841.255 2006.31 837.257C2007.01 830.248 2008.31 823.421 2010.17 816.854C2023.13 770.986 2067.75 737.604 2114.63 737.604C2161.51 737.604 2202.81 770.986 2215.79 816.854C2217.66 823.421 2218.96 830.248 2219.66 837.257L2054.33 837.257C2054.33 837.543 2054.28 837.828 2054.25 838.14L2054.2 839.022C2054.15 839.775 2054.1 840.554 2054.07 841.306C2054.04 842.137 2053.99 842.968 2053.99 843.798L2053.97 843.773ZM2057.47 816.802L2170.88 816.802C2162.55 783.212 2145.26 758.578 2118.6 756.112C2117.12 755.956 2115.64 755.904 2114.16 755.904C2085.58 755.904 2066.24 781.369 2057.47 816.802ZM1670.75 935.249C1658.99 935.249 1643.52 935.249 1623.58 935.249L1624.18 798.372L1663.12 798.372C1677.39 798.372 1691.62 799.955 1705.53 803.122L1745.64 812.207L1745.64 768.728L1703.43 777.553C1690.5 780.253 1677.34 781.629 1664.15 781.629L1623.58 781.629L1623.58 665.259C1645.96 665.259 1663.17 665.311 1675.65 665.363C1692.81 665.44 1709.74 669.386 1725.13 676.966L1772.35 700.146L1767.54 647.425L1550.59 647.425L1561.33 654.901C1574.05 663.753 1581.63 678.29 1581.63 693.787L1581.48 908.953C1581.48 924.372 1573.95 938.831 1561.31 947.683L1550.59 955.185L1774.5 955.185L1778.27 900.153L1730.17 922.27C1711.53 930.836 1691.25 935.275 1670.75 935.249Z" fill="#003c3c" fill-rule="evenodd" opacity="1" stroke="none"/>
</g>
</g>
</svg>
